G75*
G70*
%OFA0B0*%
%FSLAX24Y24*%
%IPPOS*%
%LPD*%
%AMOC8*
5,1,8,0,0,1.08239X$1,22.5*
%
%ADD10C,0.0787*%
%ADD11C,0.0630*%
%ADD12C,0.0236*%
%ADD13C,0.0079*%
%ADD14C,0.0197*%
D10*
X007087Y001181D03*
X012598Y002756D03*
X018504Y008661D03*
X018504Y015354D03*
X013780Y018504D03*
X001181Y012598D03*
X001181Y007087D03*
D11*
X014961Y003756D03*
X014961Y002756D03*
X014961Y001756D03*
D12*
X018110Y003543D03*
X018504Y003543D03*
X018504Y003937D03*
X018110Y003937D03*
X018110Y004331D03*
X018110Y004724D03*
X018504Y004724D03*
X018504Y004331D03*
X018898Y004331D03*
X018898Y004724D03*
X018898Y005118D03*
X018504Y005118D03*
X018110Y005118D03*
X018898Y003937D03*
X018898Y003543D03*
X015650Y006004D03*
X015650Y006299D03*
X015354Y006299D03*
X015059Y006299D03*
X015059Y006004D03*
X015354Y006004D03*
X014469Y006004D03*
X014469Y006299D03*
X014173Y006299D03*
X013878Y006299D03*
X013878Y006004D03*
X014173Y006004D03*
X011713Y007480D03*
X013878Y009055D03*
X014173Y009055D03*
X014469Y009055D03*
X015059Y009055D03*
X015354Y009055D03*
X015650Y009055D03*
X016781Y008760D03*
X016781Y008465D03*
X017077Y008465D03*
X017077Y008760D03*
X016437Y013091D03*
X016437Y013386D03*
X016437Y013681D03*
X016142Y013681D03*
X016142Y013386D03*
X016142Y013091D03*
X016142Y014272D03*
X016142Y014567D03*
X016437Y014567D03*
X016437Y014272D03*
X016437Y014862D03*
X016142Y014862D03*
X013386Y013976D03*
X010630Y018110D03*
X010236Y018110D03*
X009843Y018110D03*
X009843Y018504D03*
X010236Y018504D03*
X010630Y018504D03*
X010630Y018898D03*
X010236Y018898D03*
X009843Y018898D03*
X009449Y018898D03*
X009055Y018898D03*
X009055Y018504D03*
X009055Y018110D03*
X009449Y018110D03*
X009449Y018504D03*
X001575Y016142D03*
X001181Y016142D03*
X000787Y016142D03*
X000787Y015748D03*
X001181Y015748D03*
X001575Y015748D03*
X001575Y015354D03*
X001575Y014961D03*
X001181Y014961D03*
X001181Y015354D03*
X000787Y015354D03*
X000787Y014961D03*
X000787Y014567D03*
X001181Y014567D03*
X001575Y014567D03*
X001575Y010630D03*
X001181Y010630D03*
X000787Y010630D03*
X000787Y010236D03*
X000787Y009843D03*
X001181Y009843D03*
X001181Y010236D03*
X001575Y010236D03*
X001575Y009843D03*
X001575Y009449D03*
X001181Y009449D03*
X000787Y009449D03*
X000787Y009055D03*
X001181Y009055D03*
X001575Y009055D03*
X001575Y005118D03*
X001181Y005118D03*
X000787Y005118D03*
X000787Y004724D03*
X000787Y004331D03*
X001181Y004331D03*
X001181Y004724D03*
X001575Y004724D03*
X001575Y004331D03*
X001575Y003937D03*
X001575Y003543D03*
X001181Y003543D03*
X000787Y003543D03*
X000787Y003937D03*
X001181Y003937D03*
X003543Y001575D03*
X003543Y001181D03*
X003543Y000787D03*
X003937Y000787D03*
X004331Y000787D03*
X004724Y000787D03*
X005118Y000787D03*
X005118Y001181D03*
X004724Y001181D03*
X004724Y001575D03*
X005118Y001575D03*
X004331Y001575D03*
X004331Y001181D03*
X003937Y001181D03*
X003937Y001575D03*
X009055Y001575D03*
X009449Y001575D03*
X009449Y001181D03*
X009055Y001181D03*
X009055Y000787D03*
X009449Y000787D03*
X009843Y000787D03*
X010236Y000787D03*
X010630Y000787D03*
X010630Y001181D03*
X010236Y001181D03*
X009843Y001181D03*
X009843Y001575D03*
X010236Y001575D03*
X010630Y001575D03*
D13*
X012055Y002628D02*
X002690Y002628D01*
X002613Y002705D02*
X012047Y002705D01*
X012047Y002646D02*
X012047Y002866D01*
X012131Y003068D01*
X012286Y003223D01*
X012489Y003307D01*
X012708Y003307D01*
X012911Y003223D01*
X013066Y003068D01*
X013150Y002866D01*
X013150Y002646D01*
X013066Y002444D01*
X012911Y002289D01*
X012708Y002205D01*
X012489Y002205D01*
X012286Y002289D01*
X012131Y002444D01*
X012047Y002646D01*
X012087Y002550D02*
X002767Y002550D01*
X002845Y002473D02*
X012119Y002473D01*
X012179Y002396D02*
X002922Y002396D01*
X002999Y002319D02*
X012256Y002319D01*
X012401Y002241D02*
X003031Y002241D01*
X003031Y002286D02*
X002402Y002916D01*
X002286Y003031D01*
X000472Y003031D01*
X000472Y016654D01*
X002286Y016654D01*
X002402Y016769D01*
X003031Y017399D01*
X003031Y017562D01*
X003031Y019213D01*
X016654Y019213D01*
X016654Y017562D01*
X016654Y017399D01*
X017283Y016769D01*
X017399Y016654D01*
X019213Y016654D01*
X019213Y003031D01*
X017399Y003031D01*
X017283Y002916D01*
X016654Y002286D01*
X016654Y002123D01*
X016654Y000472D01*
X003031Y000472D01*
X003031Y002123D01*
X003031Y002286D01*
X003031Y002164D02*
X014711Y002164D01*
X014693Y002156D02*
X014560Y002024D01*
X014488Y001850D01*
X014488Y001662D01*
X014560Y001488D01*
X014693Y001355D01*
X014867Y001283D01*
X015055Y001283D01*
X015228Y001355D01*
X015361Y001488D01*
X015433Y001662D01*
X015433Y001850D01*
X015361Y002024D01*
X015228Y002156D01*
X015055Y002228D01*
X014867Y002228D01*
X014693Y002156D01*
X014623Y002087D02*
X003031Y002087D01*
X003031Y002009D02*
X014554Y002009D01*
X014522Y001932D02*
X003031Y001932D01*
X003031Y001855D02*
X014490Y001855D01*
X014488Y001778D02*
X003031Y001778D01*
X003031Y001700D02*
X014488Y001700D01*
X014504Y001623D02*
X003031Y001623D01*
X003031Y001546D02*
X014536Y001546D01*
X014580Y001468D02*
X003031Y001468D01*
X003031Y001391D02*
X014657Y001391D01*
X014793Y001314D02*
X003031Y001314D01*
X003031Y001237D02*
X016654Y001237D01*
X016654Y001314D02*
X015128Y001314D01*
X015264Y001391D02*
X016654Y001391D01*
X016654Y001468D02*
X015341Y001468D01*
X015385Y001546D02*
X016654Y001546D01*
X016654Y001623D02*
X015417Y001623D01*
X015433Y001700D02*
X016654Y001700D01*
X016654Y001778D02*
X015433Y001778D01*
X015431Y001855D02*
X016654Y001855D01*
X016654Y001932D02*
X015399Y001932D01*
X015367Y002009D02*
X016654Y002009D01*
X016654Y002087D02*
X015298Y002087D01*
X015210Y002164D02*
X016654Y002164D01*
X016654Y002241D02*
X012796Y002241D01*
X012941Y002319D02*
X014782Y002319D01*
X014867Y002283D02*
X015055Y002283D01*
X015228Y002355D01*
X015361Y002488D01*
X015433Y002662D01*
X015433Y002850D01*
X015361Y003024D01*
X015228Y003156D01*
X015055Y003228D01*
X014867Y003228D01*
X014693Y003156D01*
X014560Y003024D01*
X014488Y002850D01*
X014488Y002662D01*
X014560Y002488D01*
X014693Y002355D01*
X014867Y002283D01*
X014653Y002396D02*
X013018Y002396D01*
X013078Y002473D02*
X014575Y002473D01*
X014534Y002550D02*
X013110Y002550D01*
X013142Y002628D02*
X014502Y002628D01*
X014488Y002705D02*
X013150Y002705D01*
X013150Y002782D02*
X014488Y002782D01*
X014492Y002859D02*
X013150Y002859D01*
X013120Y002937D02*
X014524Y002937D01*
X014556Y003014D02*
X013088Y003014D01*
X013042Y003091D02*
X014628Y003091D01*
X014723Y003169D02*
X012965Y003169D01*
X012856Y003246D02*
X019213Y003246D01*
X019213Y003323D02*
X000472Y003323D01*
X000472Y003246D02*
X012341Y003246D01*
X012232Y003169D02*
X000472Y003169D01*
X000472Y003091D02*
X012154Y003091D01*
X012109Y003014D02*
X002304Y003014D01*
X002381Y002937D02*
X012077Y002937D01*
X012047Y002859D02*
X002458Y002859D01*
X002536Y002782D02*
X012047Y002782D01*
X015139Y002319D02*
X016686Y002319D01*
X016763Y002396D02*
X015269Y002396D01*
X015346Y002473D02*
X016840Y002473D01*
X016918Y002550D02*
X015387Y002550D01*
X015419Y002628D02*
X016995Y002628D01*
X017072Y002705D02*
X015433Y002705D01*
X015433Y002782D02*
X017149Y002782D01*
X017227Y002859D02*
X015429Y002859D01*
X015397Y002937D02*
X017304Y002937D01*
X017381Y003014D02*
X015365Y003014D01*
X015293Y003091D02*
X019213Y003091D01*
X019213Y003169D02*
X015199Y003169D01*
X016654Y001159D02*
X003031Y001159D01*
X003031Y001082D02*
X016654Y001082D01*
X016654Y001005D02*
X003031Y001005D01*
X003031Y000927D02*
X016654Y000927D01*
X016654Y000850D02*
X003031Y000850D01*
X003031Y000773D02*
X016654Y000773D01*
X016654Y000696D02*
X003031Y000696D01*
X003031Y000618D02*
X016654Y000618D01*
X016654Y000541D02*
X003031Y000541D01*
X000472Y003400D02*
X019213Y003400D01*
X019213Y003478D02*
X000472Y003478D01*
X000472Y003555D02*
X019213Y003555D01*
X019213Y003632D02*
X000472Y003632D01*
X000472Y003710D02*
X019213Y003710D01*
X019213Y003787D02*
X000472Y003787D01*
X000472Y003864D02*
X019213Y003864D01*
X019213Y003941D02*
X000472Y003941D01*
X000472Y004019D02*
X019213Y004019D01*
X019213Y004096D02*
X000472Y004096D01*
X000472Y004173D02*
X019213Y004173D01*
X019213Y004251D02*
X000472Y004251D01*
X000472Y004328D02*
X019213Y004328D01*
X019213Y004405D02*
X000472Y004405D01*
X000472Y004482D02*
X019213Y004482D01*
X019213Y004560D02*
X000472Y004560D01*
X000472Y004637D02*
X019213Y004637D01*
X019213Y004714D02*
X000472Y004714D01*
X000472Y004792D02*
X019213Y004792D01*
X019213Y004869D02*
X000472Y004869D01*
X000472Y004946D02*
X019213Y004946D01*
X019213Y005023D02*
X000472Y005023D01*
X000472Y005101D02*
X019213Y005101D01*
X019213Y005178D02*
X000472Y005178D01*
X000472Y005255D02*
X019213Y005255D01*
X019213Y005333D02*
X000472Y005333D01*
X000472Y005410D02*
X019213Y005410D01*
X019213Y005487D02*
X000472Y005487D01*
X000472Y005564D02*
X019213Y005564D01*
X019213Y005642D02*
X000472Y005642D01*
X000472Y005719D02*
X019213Y005719D01*
X019213Y005796D02*
X000472Y005796D01*
X000472Y005874D02*
X019213Y005874D01*
X019213Y005951D02*
X000472Y005951D01*
X000472Y006028D02*
X019213Y006028D01*
X019213Y006105D02*
X000472Y006105D01*
X000472Y006183D02*
X019213Y006183D01*
X019213Y006260D02*
X000472Y006260D01*
X000472Y006337D02*
X019213Y006337D01*
X019213Y006415D02*
X000472Y006415D01*
X000472Y006492D02*
X019213Y006492D01*
X019213Y006569D02*
X000472Y006569D01*
X000472Y006646D02*
X019213Y006646D01*
X019213Y006724D02*
X000472Y006724D01*
X000472Y006801D02*
X019213Y006801D01*
X019213Y006878D02*
X000472Y006878D01*
X000472Y006956D02*
X019213Y006956D01*
X019213Y007033D02*
X000472Y007033D01*
X000472Y007110D02*
X019213Y007110D01*
X019213Y007187D02*
X000472Y007187D01*
X000472Y007265D02*
X011539Y007265D01*
X011556Y007247D02*
X011658Y007205D01*
X011767Y007205D01*
X011815Y007224D01*
X012351Y007224D01*
X012452Y007224D01*
X012546Y007263D01*
X013531Y008248D01*
X013603Y008320D01*
X013642Y008414D01*
X013642Y008905D01*
X013644Y008899D01*
X013722Y008821D01*
X013823Y008780D01*
X013933Y008780D01*
X014026Y008818D01*
X014118Y008780D01*
X014228Y008780D01*
X014321Y008818D01*
X014414Y008780D01*
X014523Y008780D01*
X014625Y008821D01*
X014702Y008899D01*
X014744Y009000D01*
X014744Y009110D01*
X014702Y009211D01*
X014625Y009289D01*
X014523Y009331D01*
X014414Y009331D01*
X014321Y009292D01*
X014228Y009331D01*
X014118Y009331D01*
X014026Y009292D01*
X013933Y009331D01*
X013823Y009331D01*
X013722Y009289D01*
X013644Y009211D01*
X013642Y009205D01*
X013642Y013874D01*
X013661Y013922D01*
X013661Y014031D01*
X013619Y014132D01*
X013542Y014210D01*
X013441Y014252D01*
X013331Y014252D01*
X013230Y014210D01*
X013152Y014132D01*
X013110Y014031D01*
X013110Y013922D01*
X013130Y013874D01*
X013130Y008571D01*
X012296Y007736D01*
X011815Y007736D01*
X011767Y007756D01*
X011658Y007756D01*
X011556Y007714D01*
X011479Y007636D01*
X011437Y007535D01*
X011437Y007425D01*
X011479Y007324D01*
X011556Y007247D01*
X011472Y007342D02*
X000472Y007342D01*
X000472Y007419D02*
X011440Y007419D01*
X011437Y007496D02*
X000472Y007496D01*
X000472Y007574D02*
X011453Y007574D01*
X011494Y007651D02*
X000472Y007651D01*
X000472Y007728D02*
X011591Y007728D01*
X012365Y007806D02*
X000472Y007806D01*
X000472Y007883D02*
X012442Y007883D01*
X012520Y007960D02*
X000472Y007960D01*
X000472Y008037D02*
X012597Y008037D01*
X012674Y008115D02*
X000472Y008115D01*
X000472Y008192D02*
X012751Y008192D01*
X012829Y008269D02*
X000472Y008269D01*
X000472Y008347D02*
X012906Y008347D01*
X012983Y008424D02*
X000472Y008424D01*
X000472Y008501D02*
X013061Y008501D01*
X013130Y008578D02*
X000472Y008578D01*
X000472Y008656D02*
X013130Y008656D01*
X013130Y008733D02*
X000472Y008733D01*
X000472Y008810D02*
X013130Y008810D01*
X013130Y008888D02*
X000472Y008888D01*
X000472Y008965D02*
X013130Y008965D01*
X013130Y009042D02*
X000472Y009042D01*
X000472Y009119D02*
X013130Y009119D01*
X013130Y009197D02*
X000472Y009197D01*
X000472Y009274D02*
X013130Y009274D01*
X013130Y009351D02*
X000472Y009351D01*
X000472Y009429D02*
X013130Y009429D01*
X013130Y009506D02*
X000472Y009506D01*
X000472Y009583D02*
X013130Y009583D01*
X013130Y009660D02*
X000472Y009660D01*
X000472Y009738D02*
X013130Y009738D01*
X013130Y009815D02*
X000472Y009815D01*
X000472Y009892D02*
X013130Y009892D01*
X013130Y009970D02*
X000472Y009970D01*
X000472Y010047D02*
X013130Y010047D01*
X013130Y010124D02*
X000472Y010124D01*
X000472Y010201D02*
X013130Y010201D01*
X013130Y010279D02*
X000472Y010279D01*
X000472Y010356D02*
X013130Y010356D01*
X013130Y010433D02*
X000472Y010433D01*
X000472Y010511D02*
X013130Y010511D01*
X013130Y010588D02*
X000472Y010588D01*
X000472Y010665D02*
X013130Y010665D01*
X013130Y010742D02*
X000472Y010742D01*
X000472Y010820D02*
X013130Y010820D01*
X013130Y010897D02*
X000472Y010897D01*
X000472Y010974D02*
X013130Y010974D01*
X013130Y011052D02*
X000472Y011052D01*
X000472Y011129D02*
X013130Y011129D01*
X013130Y011206D02*
X000472Y011206D01*
X000472Y011283D02*
X013130Y011283D01*
X013130Y011361D02*
X000472Y011361D01*
X000472Y011438D02*
X013130Y011438D01*
X013130Y011515D02*
X000472Y011515D01*
X000472Y011593D02*
X013130Y011593D01*
X013130Y011670D02*
X000472Y011670D01*
X000472Y011747D02*
X013130Y011747D01*
X013130Y011824D02*
X000472Y011824D01*
X000472Y011902D02*
X013130Y011902D01*
X013130Y011979D02*
X000472Y011979D01*
X000472Y012056D02*
X013130Y012056D01*
X013130Y012134D02*
X000472Y012134D01*
X000472Y012211D02*
X013130Y012211D01*
X013130Y012288D02*
X000472Y012288D01*
X000472Y012365D02*
X013130Y012365D01*
X013130Y012443D02*
X000472Y012443D01*
X000472Y012520D02*
X013130Y012520D01*
X013130Y012597D02*
X000472Y012597D01*
X000472Y012674D02*
X013130Y012674D01*
X013130Y012752D02*
X000472Y012752D01*
X000472Y012829D02*
X013130Y012829D01*
X013130Y012906D02*
X000472Y012906D01*
X000472Y012984D02*
X013130Y012984D01*
X013130Y013061D02*
X000472Y013061D01*
X000472Y013138D02*
X013130Y013138D01*
X013130Y013215D02*
X000472Y013215D01*
X000472Y013293D02*
X013130Y013293D01*
X013130Y013370D02*
X000472Y013370D01*
X000472Y013447D02*
X013130Y013447D01*
X013130Y013525D02*
X000472Y013525D01*
X000472Y013602D02*
X013130Y013602D01*
X013130Y013679D02*
X000472Y013679D01*
X000472Y013756D02*
X013130Y013756D01*
X013130Y013834D02*
X000472Y013834D01*
X000472Y013911D02*
X013115Y013911D01*
X013110Y013988D02*
X000472Y013988D01*
X000472Y014066D02*
X013125Y014066D01*
X013163Y014143D02*
X000472Y014143D01*
X000472Y014220D02*
X013254Y014220D01*
X013517Y014220D02*
X019213Y014220D01*
X019213Y014143D02*
X013609Y014143D01*
X013647Y014066D02*
X019213Y014066D01*
X019213Y013988D02*
X013661Y013988D01*
X013657Y013911D02*
X019213Y013911D01*
X019213Y013834D02*
X013642Y013834D01*
X013642Y013756D02*
X019213Y013756D01*
X019213Y013679D02*
X013642Y013679D01*
X013642Y013602D02*
X019213Y013602D01*
X019213Y013525D02*
X013642Y013525D01*
X013642Y013447D02*
X019213Y013447D01*
X019213Y013370D02*
X013642Y013370D01*
X013642Y013293D02*
X019213Y013293D01*
X019213Y013215D02*
X013642Y013215D01*
X013642Y013138D02*
X019213Y013138D01*
X019213Y013061D02*
X013642Y013061D01*
X013642Y012984D02*
X019213Y012984D01*
X019213Y012906D02*
X013642Y012906D01*
X013642Y012829D02*
X019213Y012829D01*
X019213Y012752D02*
X013642Y012752D01*
X013642Y012674D02*
X019213Y012674D01*
X019213Y012597D02*
X013642Y012597D01*
X013642Y012520D02*
X019213Y012520D01*
X019213Y012443D02*
X013642Y012443D01*
X013642Y012365D02*
X019213Y012365D01*
X019213Y012288D02*
X013642Y012288D01*
X013642Y012211D02*
X019213Y012211D01*
X019213Y012134D02*
X013642Y012134D01*
X013642Y012056D02*
X019213Y012056D01*
X019213Y011979D02*
X013642Y011979D01*
X013642Y011902D02*
X019213Y011902D01*
X019213Y011824D02*
X013642Y011824D01*
X013642Y011747D02*
X019213Y011747D01*
X019213Y011670D02*
X013642Y011670D01*
X013642Y011593D02*
X019213Y011593D01*
X019213Y011515D02*
X013642Y011515D01*
X013642Y011438D02*
X019213Y011438D01*
X019213Y011361D02*
X013642Y011361D01*
X013642Y011283D02*
X019213Y011283D01*
X019213Y011206D02*
X013642Y011206D01*
X013642Y011129D02*
X019213Y011129D01*
X019213Y011052D02*
X013642Y011052D01*
X013642Y010974D02*
X019213Y010974D01*
X019213Y010897D02*
X013642Y010897D01*
X013642Y010820D02*
X019213Y010820D01*
X019213Y010742D02*
X013642Y010742D01*
X013642Y010665D02*
X019213Y010665D01*
X019213Y010588D02*
X013642Y010588D01*
X013642Y010511D02*
X019213Y010511D01*
X019213Y010433D02*
X013642Y010433D01*
X013642Y010356D02*
X019213Y010356D01*
X019213Y010279D02*
X013642Y010279D01*
X013642Y010201D02*
X019213Y010201D01*
X019213Y010124D02*
X013642Y010124D01*
X013642Y010047D02*
X019213Y010047D01*
X019213Y009970D02*
X013642Y009970D01*
X013642Y009892D02*
X019213Y009892D01*
X019213Y009815D02*
X013642Y009815D01*
X013642Y009738D02*
X019213Y009738D01*
X019213Y009660D02*
X013642Y009660D01*
X013642Y009583D02*
X019213Y009583D01*
X019213Y009506D02*
X013642Y009506D01*
X013642Y009429D02*
X019213Y009429D01*
X019213Y009351D02*
X013642Y009351D01*
X013642Y009274D02*
X013707Y009274D01*
X013656Y008888D02*
X013642Y008888D01*
X013642Y008810D02*
X013749Y008810D01*
X013642Y008733D02*
X016506Y008733D01*
X016506Y008705D02*
X016544Y008612D01*
X016506Y008519D01*
X016506Y008410D01*
X016548Y008308D01*
X016625Y008231D01*
X016727Y008189D01*
X016836Y008189D01*
X016929Y008227D01*
X017022Y008189D01*
X017132Y008189D01*
X017233Y008231D01*
X017310Y008308D01*
X017352Y008410D01*
X017352Y008519D01*
X017314Y008612D01*
X017352Y008705D01*
X017352Y008815D01*
X017310Y008916D01*
X017233Y008993D01*
X017132Y009035D01*
X017022Y009035D01*
X016929Y008997D01*
X016836Y009035D01*
X016727Y009035D01*
X016625Y008993D01*
X016548Y008916D01*
X016506Y008815D01*
X016506Y008705D01*
X016526Y008656D02*
X013642Y008656D01*
X013642Y008578D02*
X016530Y008578D01*
X016506Y008501D02*
X013642Y008501D01*
X013642Y008424D02*
X016506Y008424D01*
X016532Y008347D02*
X013614Y008347D01*
X013552Y008269D02*
X016587Y008269D01*
X016719Y008192D02*
X013475Y008192D01*
X013398Y008115D02*
X018383Y008115D01*
X018394Y008110D02*
X018614Y008110D01*
X018816Y008194D01*
X018971Y008349D01*
X019055Y008552D01*
X019055Y008771D01*
X018971Y008974D01*
X018816Y009129D01*
X018614Y009213D01*
X018394Y009213D01*
X018192Y009129D01*
X018037Y008974D01*
X017953Y008771D01*
X017953Y008552D01*
X018037Y008349D01*
X018192Y008194D01*
X018394Y008110D01*
X018197Y008192D02*
X017139Y008192D01*
X017014Y008192D02*
X016844Y008192D01*
X017271Y008269D02*
X018116Y008269D01*
X018039Y008347D02*
X017326Y008347D01*
X017352Y008424D02*
X018006Y008424D01*
X017974Y008501D02*
X017352Y008501D01*
X017328Y008578D02*
X017953Y008578D01*
X017953Y008656D02*
X017332Y008656D01*
X017352Y008733D02*
X017953Y008733D01*
X017969Y008810D02*
X017352Y008810D01*
X017322Y008888D02*
X018001Y008888D01*
X018033Y008965D02*
X017261Y008965D01*
X016597Y008965D02*
X015910Y008965D01*
X015925Y009000D02*
X015925Y009110D01*
X015883Y009211D01*
X015806Y009289D01*
X015704Y009331D01*
X015595Y009331D01*
X015502Y009292D01*
X015409Y009331D01*
X015299Y009331D01*
X015207Y009292D01*
X015114Y009331D01*
X015004Y009331D01*
X014903Y009289D01*
X014825Y009211D01*
X014783Y009110D01*
X014783Y009000D01*
X014825Y008899D01*
X014903Y008821D01*
X015004Y008780D01*
X015114Y008780D01*
X015207Y008818D01*
X015299Y008780D01*
X015409Y008780D01*
X015502Y008818D01*
X015595Y008780D01*
X015704Y008780D01*
X015806Y008821D01*
X015883Y008899D01*
X015925Y009000D01*
X015925Y009042D02*
X018105Y009042D01*
X018182Y009119D02*
X015921Y009119D01*
X015889Y009197D02*
X018356Y009197D01*
X018652Y009197D02*
X019213Y009197D01*
X019213Y009274D02*
X015820Y009274D01*
X015872Y008888D02*
X016536Y008888D01*
X016506Y008810D02*
X015779Y008810D01*
X015520Y008810D02*
X015483Y008810D01*
X015225Y008810D02*
X015188Y008810D01*
X014930Y008810D02*
X014598Y008810D01*
X014691Y008888D02*
X014837Y008888D01*
X014798Y008965D02*
X014729Y008965D01*
X014744Y009042D02*
X014783Y009042D01*
X014787Y009119D02*
X014740Y009119D01*
X014708Y009197D02*
X014819Y009197D01*
X014888Y009274D02*
X014639Y009274D01*
X014339Y008810D02*
X014302Y008810D01*
X014044Y008810D02*
X014007Y008810D01*
X013321Y008037D02*
X019213Y008037D01*
X019213Y007960D02*
X013243Y007960D01*
X013166Y007883D02*
X019213Y007883D01*
X019213Y007806D02*
X013089Y007806D01*
X013011Y007728D02*
X019213Y007728D01*
X019213Y007651D02*
X012934Y007651D01*
X012857Y007574D02*
X019213Y007574D01*
X019213Y007496D02*
X012780Y007496D01*
X012702Y007419D02*
X019213Y007419D01*
X019213Y007342D02*
X012625Y007342D01*
X012548Y007265D02*
X019213Y007265D01*
X019213Y008115D02*
X018624Y008115D01*
X018811Y008192D02*
X019213Y008192D01*
X019213Y008269D02*
X018891Y008269D01*
X018969Y008347D02*
X019213Y008347D01*
X019213Y008424D02*
X019002Y008424D01*
X019034Y008501D02*
X019213Y008501D01*
X019213Y008578D02*
X019055Y008578D01*
X019055Y008656D02*
X019213Y008656D01*
X019213Y008733D02*
X019055Y008733D01*
X019039Y008810D02*
X019213Y008810D01*
X019213Y008888D02*
X019007Y008888D01*
X018975Y008965D02*
X019213Y008965D01*
X019213Y009042D02*
X018903Y009042D01*
X018825Y009119D02*
X019213Y009119D01*
X019213Y014297D02*
X000472Y014297D01*
X000472Y014375D02*
X019213Y014375D01*
X019213Y014452D02*
X000472Y014452D01*
X000472Y014529D02*
X019213Y014529D01*
X019213Y014607D02*
X000472Y014607D01*
X000472Y014684D02*
X019213Y014684D01*
X019213Y014761D02*
X000472Y014761D01*
X000472Y014838D02*
X019213Y014838D01*
X019213Y014916D02*
X000472Y014916D01*
X000472Y014993D02*
X019213Y014993D01*
X019213Y015070D02*
X000472Y015070D01*
X000472Y015148D02*
X019213Y015148D01*
X019213Y015225D02*
X000472Y015225D01*
X000472Y015302D02*
X019213Y015302D01*
X019213Y015379D02*
X000472Y015379D01*
X000472Y015457D02*
X019213Y015457D01*
X019213Y015534D02*
X000472Y015534D01*
X000472Y015611D02*
X019213Y015611D01*
X019213Y015689D02*
X000472Y015689D01*
X000472Y015766D02*
X019213Y015766D01*
X019213Y015843D02*
X000472Y015843D01*
X000472Y015920D02*
X019213Y015920D01*
X019213Y015998D02*
X000472Y015998D01*
X000472Y016075D02*
X019213Y016075D01*
X019213Y016152D02*
X000472Y016152D01*
X000472Y016230D02*
X019213Y016230D01*
X019213Y016307D02*
X000472Y016307D01*
X000472Y016384D02*
X019213Y016384D01*
X019213Y016461D02*
X000472Y016461D01*
X000472Y016539D02*
X019213Y016539D01*
X019213Y016616D02*
X000472Y016616D01*
X002326Y016693D02*
X017359Y016693D01*
X017282Y016771D02*
X002403Y016771D01*
X002481Y016848D02*
X017204Y016848D01*
X017127Y016925D02*
X002558Y016925D01*
X002635Y017002D02*
X017050Y017002D01*
X016973Y017080D02*
X002712Y017080D01*
X002790Y017157D02*
X016895Y017157D01*
X016818Y017234D02*
X002867Y017234D01*
X002944Y017311D02*
X016741Y017311D01*
X016664Y017389D02*
X003021Y017389D01*
X003031Y017466D02*
X016654Y017466D01*
X016654Y017543D02*
X003031Y017543D01*
X003031Y017621D02*
X016654Y017621D01*
X016654Y017698D02*
X003031Y017698D01*
X003031Y017775D02*
X016654Y017775D01*
X016654Y017852D02*
X003031Y017852D01*
X003031Y017930D02*
X016654Y017930D01*
X016654Y018007D02*
X014020Y018007D01*
X014092Y018037D02*
X013889Y017953D01*
X013670Y017953D01*
X013467Y018037D01*
X013312Y018192D01*
X013228Y018394D01*
X013228Y018614D01*
X013312Y018816D01*
X013467Y018971D01*
X013670Y019055D01*
X013889Y019055D01*
X014092Y018971D01*
X014247Y018816D01*
X014331Y018614D01*
X014331Y018394D01*
X014247Y018192D01*
X014092Y018037D01*
X014139Y018084D02*
X016654Y018084D01*
X016654Y018162D02*
X014217Y018162D01*
X014266Y018239D02*
X016654Y018239D01*
X016654Y018316D02*
X014298Y018316D01*
X014330Y018393D02*
X016654Y018393D01*
X016654Y018471D02*
X014331Y018471D01*
X014331Y018548D02*
X016654Y018548D01*
X016654Y018625D02*
X014326Y018625D01*
X014294Y018703D02*
X016654Y018703D01*
X016654Y018780D02*
X014262Y018780D01*
X014206Y018857D02*
X016654Y018857D01*
X016654Y018934D02*
X014128Y018934D01*
X013994Y019012D02*
X016654Y019012D01*
X016654Y019089D02*
X003031Y019089D01*
X003031Y019012D02*
X013565Y019012D01*
X013431Y018934D02*
X003031Y018934D01*
X003031Y018857D02*
X013353Y018857D01*
X013297Y018780D02*
X003031Y018780D01*
X003031Y018703D02*
X013265Y018703D01*
X013233Y018625D02*
X003031Y018625D01*
X003031Y018548D02*
X013228Y018548D01*
X013228Y018471D02*
X003031Y018471D01*
X003031Y018393D02*
X013229Y018393D01*
X013261Y018316D02*
X003031Y018316D01*
X003031Y018239D02*
X013293Y018239D01*
X013342Y018162D02*
X003031Y018162D01*
X003031Y018084D02*
X013420Y018084D01*
X013539Y018007D02*
X003031Y018007D01*
X003031Y019166D02*
X016654Y019166D01*
D14*
X013386Y013976D02*
X013386Y008465D01*
X012402Y007480D01*
X011713Y007480D01*
M02*
