%
M48
T01C0.011811
T02C0.039370
T03C0.125984
%
T01
X3543Y787
X3937Y787
X4331Y787
X4724Y787
X5118Y787
X5118Y1181
X4724Y1181
X4724Y1575
X5118Y1575
X4331Y1575
X4331Y1181
X3937Y1181
X3937Y1575
X3543Y1575
X3543Y1181
X1575Y3543
X1181Y3543
X787Y3543
X787Y3937
X1181Y3937
X1575Y3937
X1575Y4331
X1575Y4724
X1181Y4724
X1181Y4331
X787Y4331
X787Y4724
X787Y5118
X1181Y5118
X1575Y5118
X1575Y9055
X1181Y9055
X787Y9055
X787Y9449
X787Y9843
X787Y10236
X1181Y10236
X1181Y9843
X1575Y9843
X1575Y10236
X1575Y10630
X1181Y10630
X787Y10630
X1181Y9449
X1575Y9449
X1575Y14567
X1181Y14567
X787Y14567
X787Y14961
X787Y15354
X1181Y15354
X1181Y14961
X1575Y14961
X1575Y15354
X1575Y15748
X1575Y16142
X1181Y16142
X787Y16142
X787Y15748
X1181Y15748
X9055Y18110
X9449Y18110
X9449Y18504
X9055Y18504
X9055Y18898
X9449Y18898
X9843Y18898
X10236Y18898
X10630Y18898
X10630Y18504
X10630Y18110
X10236Y18110
X9843Y18110
X9843Y18504
X10236Y18504
X13386Y13976
X16142Y13681
X16437Y13681
X16437Y13386
X16142Y13386
X16142Y13091
X16437Y13091
X16437Y14272
X16437Y14567
X16142Y14567
X16142Y14272
X16142Y14862
X16437Y14862
X15650Y9055
X15354Y9055
X15059Y9055
X14469Y9055
X14173Y9055
X13878Y9055
X11713Y7480
X13878Y6299
X13878Y6004
X14173Y6004
X14173Y6299
X14469Y6299
X14469Y6004
X15059Y6004
X15059Y6299
X15354Y6299
X15354Y6004
X15650Y6004
X15650Y6299
X16781Y8465
X16781Y8760
X17077Y8760
X17077Y8465
X18110Y5118
X18504Y5118
X18504Y4724
X18504Y4331
X18110Y4331
X18110Y4724
X18110Y3937
X18110Y3543
X18504Y3543
X18504Y3937
X18898Y3937
X18898Y3543
X18898Y4331
X18898Y4724
X18898Y5118
X10630Y1575
X10236Y1575
X9843Y1575
X9843Y1181
X10236Y1181
X10630Y1181
X10630Y787
X10236Y787
X9843Y787
X9449Y787
X9055Y787
X9055Y1181
X9055Y1575
X9449Y1575
X9449Y1181
T02
X7087Y1181
X12598Y2756
X14961Y2756
X14961Y3756
X14961Y1756
X18504Y8661
X18504Y15354
X13780Y18504
X1181Y12598
X1181Y7087
T03
X1575Y1575
X18110Y1575
X18110Y18110
X1575Y18110
M30
