G75*
G70*
%OFA0B0*%
%FSLAX24Y24*%
%IPPOS*%
%LPD*%
%AMOC8*
5,1,8,0,0,1.08239X$1,22.5*
%
%ADD10C,0.0110*%
%ADD11C,0.0090*%
%ADD12C,0.0079*%
%ADD13C,0.0118*%
%ADD14C,0.0059*%
D10*
X003285Y015803D02*
X003205Y015883D01*
X003285Y015803D02*
X003445Y015803D01*
X003525Y015883D01*
X003525Y015963D01*
X003445Y016044D01*
X003285Y016044D01*
X003205Y016124D01*
X003205Y016204D01*
X003285Y016284D01*
X003445Y016284D01*
X003525Y016204D01*
X003748Y016204D02*
X003748Y016124D01*
X003829Y016044D01*
X003989Y016044D01*
X004069Y015963D01*
X004069Y015883D01*
X003989Y015803D01*
X003829Y015803D01*
X003748Y015883D01*
X003748Y016204D02*
X003829Y016284D01*
X003989Y016284D01*
X004069Y016204D01*
X004292Y016204D02*
X004292Y015883D01*
X004372Y015803D01*
X004533Y015803D01*
X004613Y015883D01*
X004613Y016204D01*
X004533Y016284D01*
X004372Y016284D01*
X004292Y016204D01*
X004372Y016590D02*
X004533Y016590D01*
X004613Y016671D01*
X004613Y016991D01*
X004533Y017071D01*
X004372Y017071D01*
X004292Y016991D01*
X004292Y016911D01*
X004372Y016831D01*
X004613Y016831D01*
X004836Y016831D02*
X004836Y016671D01*
X004916Y016590D01*
X005076Y016590D01*
X005156Y016671D01*
X005156Y016751D01*
X005076Y016831D01*
X004836Y016831D01*
X004996Y016991D01*
X005156Y017071D01*
X005380Y017071D02*
X005700Y017071D01*
X005700Y016991D01*
X005380Y016671D01*
X005380Y016590D01*
X005540Y016204D02*
X005380Y016044D01*
X005620Y016044D01*
X005700Y015963D01*
X005700Y015883D01*
X005620Y015803D01*
X005460Y015803D01*
X005380Y015883D01*
X005380Y016044D01*
X005156Y016044D02*
X005156Y016204D01*
X005076Y016284D01*
X004836Y016284D01*
X004836Y015803D01*
X004836Y015963D02*
X005076Y015963D01*
X005156Y016044D01*
X005540Y016204D02*
X005700Y016284D01*
X005923Y016044D02*
X006244Y016044D01*
X006467Y016124D02*
X006467Y016204D01*
X006547Y016284D01*
X006708Y016284D01*
X006788Y016204D01*
X006708Y016044D02*
X006547Y016044D01*
X006467Y016124D01*
X006467Y015883D02*
X006547Y015803D01*
X006708Y015803D01*
X006788Y015883D01*
X006788Y015963D01*
X006708Y016044D01*
X007011Y016284D02*
X007011Y015803D01*
X007331Y015803D02*
X007331Y016284D01*
X007171Y016124D01*
X007011Y016284D01*
X006708Y016590D02*
X006788Y016671D01*
X006788Y016831D01*
X006627Y016831D01*
X006467Y016991D02*
X006467Y016671D01*
X006547Y016590D01*
X006708Y016590D01*
X006788Y016991D02*
X006708Y017071D01*
X006547Y017071D01*
X006467Y016991D01*
X006244Y017071D02*
X006084Y016991D01*
X005923Y016831D01*
X006164Y016831D01*
X006244Y016751D01*
X006244Y016671D01*
X006164Y016590D01*
X006003Y016590D01*
X005923Y016671D01*
X005923Y016831D01*
X004372Y016590D02*
X004292Y016671D01*
X004069Y016671D02*
X004069Y016991D01*
X003989Y017071D01*
X003748Y017071D01*
X003748Y016590D01*
X003989Y016590D01*
X004069Y016671D01*
X003525Y016671D02*
X003445Y016590D01*
X003205Y016590D01*
X003205Y017071D01*
X003445Y017071D01*
X003525Y016991D01*
X003525Y016911D01*
X003445Y016831D01*
X003205Y016831D01*
X003445Y016831D02*
X003525Y016751D01*
X003525Y016671D01*
X007555Y016284D02*
X007875Y016284D01*
X007715Y016284D02*
X007715Y015803D01*
D11*
X006541Y002077D02*
X006605Y002014D01*
X006732Y002014D01*
X006796Y002077D01*
X006796Y002205D01*
X006669Y002205D01*
X006796Y002332D02*
X006732Y002396D01*
X006605Y002396D01*
X006541Y002332D01*
X006541Y002077D01*
X006976Y002014D02*
X006976Y002396D01*
X007231Y002014D01*
X007231Y002396D01*
X007411Y002396D02*
X007411Y002014D01*
X007602Y002014D01*
X007666Y002077D01*
X007666Y002332D01*
X007602Y002396D01*
X007411Y002396D01*
X007506Y006462D02*
X007443Y006526D01*
X007506Y006462D02*
X007634Y006462D01*
X007698Y006526D01*
X007698Y006590D01*
X007634Y006654D01*
X007506Y006654D01*
X007443Y006717D01*
X007443Y006781D01*
X007506Y006845D01*
X007634Y006845D01*
X007698Y006781D01*
X007878Y006845D02*
X008069Y006845D01*
X008133Y006781D01*
X008133Y006654D01*
X008069Y006590D01*
X007878Y006590D01*
X007878Y006462D02*
X007878Y006845D01*
X007878Y007250D02*
X008133Y007250D01*
X008005Y007250D02*
X008005Y007632D01*
X007878Y007505D01*
X007698Y007569D02*
X007698Y007441D01*
X007634Y007377D01*
X007443Y007377D01*
X007443Y007250D02*
X007443Y007632D01*
X007634Y007632D01*
X007698Y007569D01*
X007570Y007377D02*
X007698Y007250D01*
X007263Y006781D02*
X007263Y006654D01*
X007199Y006590D01*
X007008Y006590D01*
X007135Y006590D02*
X007263Y006462D01*
X007008Y006462D02*
X007008Y006845D01*
X007199Y006845D01*
X007263Y006781D01*
X009100Y007992D02*
X009100Y008183D01*
X009164Y008247D01*
X009291Y008247D01*
X009355Y008183D01*
X009355Y007992D01*
X009355Y008119D02*
X009483Y008247D01*
X009483Y008427D02*
X009100Y008427D01*
X009100Y008682D01*
X009100Y008862D02*
X009100Y009053D01*
X009164Y009117D01*
X009227Y009117D01*
X009291Y009053D01*
X009291Y008862D01*
X009100Y008862D02*
X009483Y008862D01*
X009483Y009053D01*
X009419Y009117D01*
X009355Y009117D01*
X009291Y009053D01*
X009291Y008554D02*
X009291Y008427D01*
X009483Y007992D02*
X009100Y007992D01*
X010183Y008047D02*
X010374Y008047D01*
X010438Y008110D01*
X010438Y008238D01*
X010374Y008302D01*
X010183Y008302D01*
X010183Y007919D01*
X010310Y008047D02*
X010438Y007919D01*
X010618Y007919D02*
X010618Y008302D01*
X010873Y008302D01*
X011053Y008302D02*
X011053Y007919D01*
X011053Y008047D02*
X011244Y008047D01*
X011308Y008110D01*
X011308Y008238D01*
X011244Y008302D01*
X011053Y008302D01*
X011180Y008047D02*
X011308Y007919D01*
X011488Y007919D02*
X011488Y008174D01*
X011615Y008302D01*
X011743Y008174D01*
X011743Y007919D01*
X011743Y008110D02*
X011488Y008110D01*
X010745Y008110D02*
X010618Y008110D01*
X011132Y006924D02*
X011069Y006860D01*
X011069Y006605D01*
X011132Y006541D01*
X011260Y006541D01*
X011324Y006605D01*
X011504Y006605D02*
X011567Y006541D01*
X011695Y006541D01*
X011759Y006605D01*
X011759Y006669D01*
X011695Y006732D01*
X011567Y006732D01*
X011504Y006796D01*
X011504Y006860D01*
X011567Y006924D01*
X011695Y006924D01*
X011759Y006860D01*
X011939Y006924D02*
X011939Y006541D01*
X011939Y006669D02*
X012130Y006669D01*
X012194Y006732D01*
X012194Y006860D01*
X012130Y006924D01*
X011939Y006924D01*
X011324Y006860D02*
X011260Y006924D01*
X011132Y006924D01*
X013155Y006999D02*
X013219Y006935D01*
X013474Y006935D01*
X013538Y006999D01*
X013538Y007126D01*
X013474Y007190D01*
X013538Y007370D02*
X013538Y007497D01*
X013538Y007434D02*
X013155Y007434D01*
X013155Y007497D02*
X013155Y007370D01*
X013219Y007190D02*
X013155Y007126D01*
X013155Y006999D01*
X013155Y007660D02*
X013538Y007915D01*
X013155Y007915D01*
X013283Y008095D02*
X013155Y008222D01*
X013538Y008222D01*
X013538Y008095D02*
X013538Y008350D01*
X013538Y007660D02*
X013155Y007660D01*
X014479Y005349D02*
X014415Y005285D01*
X014415Y005221D01*
X014479Y005158D01*
X014606Y005158D01*
X014670Y005094D01*
X014670Y005030D01*
X014606Y004966D01*
X014479Y004966D01*
X014415Y005030D01*
X014479Y005349D02*
X014606Y005349D01*
X014670Y005285D01*
X014850Y005349D02*
X014850Y004966D01*
X014978Y005094D01*
X015105Y004966D01*
X015105Y005349D01*
X015285Y005221D02*
X015413Y005349D01*
X015413Y004966D01*
X015540Y004966D02*
X015285Y004966D01*
X016187Y003971D02*
X016187Y003588D01*
X016187Y003780D02*
X016442Y003780D01*
X016442Y003971D02*
X016442Y003588D01*
X016187Y002003D02*
X016187Y001620D01*
X016442Y001620D01*
X012940Y003588D02*
X012940Y003971D01*
X012685Y003971D02*
X012685Y003588D01*
X012505Y003588D02*
X012250Y003588D01*
X012250Y003971D01*
X012505Y003971D01*
X012685Y003971D02*
X012940Y003588D01*
X012377Y003780D02*
X012250Y003780D01*
X015990Y006978D02*
X016053Y006915D01*
X016309Y006915D01*
X016372Y006978D01*
X016372Y007106D01*
X016309Y007170D01*
X016372Y007350D02*
X016372Y007477D01*
X016372Y007413D02*
X015990Y007413D01*
X015990Y007350D02*
X015990Y007477D01*
X015990Y007640D02*
X016372Y007895D01*
X015990Y007895D01*
X016053Y008075D02*
X015990Y008138D01*
X015990Y008266D01*
X016053Y008330D01*
X016117Y008330D01*
X016372Y008075D01*
X016372Y008330D01*
X016372Y007640D02*
X015990Y007640D01*
X016053Y007170D02*
X015990Y007106D01*
X015990Y006978D01*
X017368Y007135D02*
X017368Y007263D01*
X017368Y007199D02*
X017686Y007199D01*
X017750Y007135D01*
X017750Y007071D01*
X017686Y007008D01*
X017750Y007443D02*
X017368Y007443D01*
X017368Y007698D01*
X017368Y007878D02*
X017750Y008133D01*
X017368Y008133D01*
X017368Y007878D02*
X017750Y007878D01*
X017750Y007698D02*
X017750Y007443D01*
X017559Y007443D02*
X017559Y007570D01*
X018086Y009494D02*
X017958Y009621D01*
X017958Y009877D01*
X018214Y009877D02*
X018214Y009621D01*
X018086Y009494D01*
X018393Y009558D02*
X018393Y009813D01*
X018457Y009877D01*
X018585Y009877D01*
X018649Y009813D01*
X018828Y009813D02*
X018828Y009558D01*
X018892Y009494D01*
X019020Y009494D01*
X019084Y009558D01*
X019084Y009813D02*
X019020Y009877D01*
X018892Y009877D01*
X018828Y009813D01*
X018649Y009558D02*
X018585Y009494D01*
X018457Y009494D01*
X018393Y009558D01*
X015318Y012368D02*
X015063Y012368D01*
X015318Y012623D01*
X015318Y012687D01*
X015254Y012751D01*
X015126Y012751D01*
X015063Y012687D01*
X014883Y012687D02*
X014819Y012751D01*
X014691Y012751D01*
X014628Y012687D01*
X014628Y012432D01*
X014691Y012368D01*
X014819Y012368D01*
X014883Y012432D01*
X014883Y012687D01*
X014448Y012687D02*
X014384Y012751D01*
X014256Y012751D01*
X014193Y012687D01*
X014193Y012432D01*
X014256Y012368D01*
X014384Y012368D01*
X014448Y012432D01*
X014190Y010762D02*
X014190Y010380D01*
X014063Y010380D02*
X014318Y010380D01*
X014063Y010635D02*
X014190Y010762D01*
X013883Y010699D02*
X013883Y010443D01*
X013819Y010380D01*
X013628Y010380D01*
X013628Y010762D01*
X013819Y010762D01*
X013883Y010699D01*
X012152Y013529D02*
X011897Y013912D01*
X012152Y013912D02*
X011897Y013529D01*
X011717Y013529D02*
X011462Y013529D01*
X011462Y013912D01*
X010660Y011845D02*
X010405Y011845D01*
X010533Y011845D02*
X010533Y011462D01*
X010225Y011526D02*
X010161Y011462D01*
X010034Y011462D01*
X009970Y011526D01*
X010034Y011654D02*
X010161Y011654D01*
X010225Y011590D01*
X010225Y011526D01*
X010034Y011654D02*
X009970Y011717D01*
X009970Y011781D01*
X010034Y011845D01*
X010161Y011845D01*
X010225Y011781D01*
X009790Y011781D02*
X009790Y011717D01*
X009726Y011654D01*
X009535Y011654D01*
X009535Y011845D02*
X009726Y011845D01*
X009790Y011781D01*
X009726Y011654D02*
X009790Y011590D01*
X009790Y011526D01*
X009726Y011462D01*
X009535Y011462D01*
X009535Y011845D01*
X009355Y011781D02*
X009291Y011845D01*
X009164Y011845D01*
X009100Y011781D01*
X009100Y011526D01*
X009164Y011462D01*
X009291Y011462D01*
X009355Y011526D01*
X008793Y010881D02*
X008793Y010498D01*
X008920Y010498D02*
X008665Y010498D01*
X008485Y010562D02*
X008421Y010498D01*
X008294Y010498D01*
X008230Y010562D01*
X008230Y010881D01*
X008485Y010881D02*
X008485Y010562D01*
X008665Y010753D02*
X008793Y010881D01*
X007435Y009593D02*
X007435Y009338D01*
X007180Y009593D01*
X007116Y009593D01*
X007053Y009530D01*
X007053Y009402D01*
X007116Y009338D01*
X007116Y009158D02*
X007244Y009158D01*
X007308Y009095D01*
X007308Y008903D01*
X007435Y008903D02*
X007053Y008903D01*
X007053Y009095D01*
X007116Y009158D01*
X007308Y009031D02*
X007435Y009158D01*
X001761Y008238D02*
X001761Y007983D01*
X001697Y007919D01*
X001506Y007919D01*
X001506Y008302D01*
X001697Y008302D01*
X001761Y008238D01*
X001326Y008302D02*
X001326Y007919D01*
X001071Y008302D01*
X001071Y007919D01*
X000891Y007983D02*
X000891Y008110D01*
X000763Y008110D01*
X000636Y007983D02*
X000636Y008238D01*
X000699Y008302D01*
X000827Y008302D01*
X000891Y008238D01*
X000891Y007983D02*
X000827Y007919D01*
X000699Y007919D01*
X000636Y007983D01*
X000699Y013431D02*
X000827Y013431D01*
X000891Y013495D01*
X000891Y013622D01*
X000763Y013622D01*
X000636Y013495D02*
X000699Y013431D01*
X000636Y013495D02*
X000636Y013750D01*
X000699Y013814D01*
X000827Y013814D01*
X000891Y013750D01*
X001071Y013814D02*
X001326Y013431D01*
X001326Y013814D01*
X001506Y013814D02*
X001697Y013814D01*
X001761Y013750D01*
X001761Y013495D01*
X001697Y013431D01*
X001506Y013431D01*
X001506Y013814D01*
X001071Y013814D02*
X001071Y013431D01*
X012970Y017417D02*
X013098Y017289D01*
X013225Y017417D01*
X013225Y017672D01*
X013405Y017608D02*
X013405Y017353D01*
X013469Y017289D01*
X013597Y017289D01*
X013660Y017353D01*
X013660Y017608D01*
X013597Y017672D01*
X013469Y017672D01*
X013405Y017608D01*
X012970Y017672D02*
X012970Y017417D01*
X013840Y017353D02*
X013904Y017289D01*
X014032Y017289D01*
X014095Y017353D01*
X014095Y017672D01*
X014275Y017672D02*
X014530Y017672D01*
X014403Y017672D02*
X014403Y017289D01*
X013840Y017353D02*
X013840Y017672D01*
X014256Y015605D02*
X014193Y015541D01*
X014193Y015286D01*
X014256Y015222D01*
X014384Y015222D01*
X014448Y015286D01*
X014628Y015286D02*
X014628Y015541D01*
X014691Y015605D01*
X014819Y015605D01*
X014883Y015541D01*
X014883Y015286D01*
X014819Y015222D01*
X014691Y015222D01*
X014628Y015286D01*
X014448Y015541D02*
X014384Y015605D01*
X014256Y015605D01*
X015063Y015477D02*
X015190Y015605D01*
X015190Y015222D01*
X015063Y015222D02*
X015318Y015222D01*
X017958Y016251D02*
X018022Y016187D01*
X018150Y016187D01*
X018214Y016251D01*
X018214Y016378D01*
X018086Y016378D01*
X017958Y016251D02*
X017958Y016506D01*
X018022Y016569D01*
X018150Y016569D01*
X018214Y016506D01*
X018393Y016569D02*
X018649Y016187D01*
X018649Y016569D01*
X018828Y016569D02*
X019020Y016569D01*
X019084Y016506D01*
X019084Y016251D01*
X019020Y016187D01*
X018828Y016187D01*
X018828Y016569D01*
X018393Y016569D02*
X018393Y016187D01*
D12*
X015965Y015039D02*
X015965Y014094D01*
X013563Y014094D01*
X013563Y015039D01*
X015965Y015039D01*
X015965Y013858D02*
X013563Y013858D01*
X013563Y012913D01*
X015965Y012913D01*
X015965Y013858D01*
X013445Y010846D02*
X011752Y010846D01*
X011673Y010846D01*
X011673Y010217D01*
X011752Y010217D01*
X013445Y010217D01*
X013445Y010846D01*
X012323Y011083D02*
X012323Y013327D01*
X011299Y013327D01*
X011299Y011083D01*
X012323Y011083D01*
X011752Y010846D02*
X011752Y010217D01*
X010413Y010748D02*
X010413Y011299D01*
X009272Y011299D01*
X009272Y010748D01*
X010413Y010748D01*
X010059Y010413D02*
X009626Y010413D01*
X009609Y010412D01*
X009592Y010407D01*
X009577Y010400D01*
X009563Y010390D01*
X009551Y010378D01*
X009541Y010364D01*
X009534Y010349D01*
X009529Y010332D01*
X009528Y010315D01*
X010059Y010413D02*
X010076Y010412D01*
X010093Y010407D01*
X010108Y010400D01*
X010122Y010390D01*
X010134Y010378D01*
X010144Y010364D01*
X010151Y010349D01*
X010156Y010332D01*
X010157Y010315D01*
X010157Y009370D02*
X010156Y009353D01*
X010151Y009336D01*
X010144Y009321D01*
X010134Y009307D01*
X010122Y009295D01*
X010108Y009285D01*
X010093Y009278D01*
X010076Y009273D01*
X010059Y009272D01*
X009626Y009272D01*
X009609Y009273D01*
X009592Y009278D01*
X009577Y009285D01*
X009563Y009295D01*
X009551Y009307D01*
X009541Y009321D01*
X009534Y009336D01*
X009529Y009353D01*
X009528Y009370D01*
X008937Y009134D02*
X008386Y009134D01*
X008386Y007992D01*
X008937Y007992D01*
X008937Y009134D01*
X008150Y008583D02*
X008150Y009724D01*
X007598Y009724D01*
X007598Y008583D01*
X008150Y008583D01*
X008386Y007756D02*
X008386Y007205D01*
X009528Y007205D01*
X009528Y007756D01*
X008386Y007756D01*
X008386Y006969D02*
X008386Y006417D01*
X009528Y006417D01*
X009528Y006969D01*
X008386Y006969D01*
X009764Y006969D02*
X009764Y006417D01*
X010906Y006417D01*
X010906Y006969D01*
X009764Y006969D01*
X010354Y007205D02*
X011496Y007205D01*
X011496Y007756D01*
X010354Y007756D01*
X010354Y007205D01*
X008907Y010217D02*
X008730Y010157D01*
X008730Y010276D01*
X008907Y010217D01*
X008862Y010201D02*
X008730Y010201D01*
X013701Y008878D02*
X013701Y006476D01*
X014646Y006476D01*
X014646Y008878D01*
X013701Y008878D01*
X014882Y008878D02*
X014882Y006476D01*
X015827Y006476D01*
X015827Y008878D01*
X014882Y008878D01*
X016654Y008248D02*
X016654Y007106D01*
X017205Y007106D01*
X017205Y008248D01*
X016654Y008248D01*
X015945Y004724D02*
X013976Y004724D01*
X013976Y000787D01*
X015945Y000787D01*
X015945Y004724D01*
D13*
X012007Y002756D02*
X012009Y002804D01*
X012015Y002852D01*
X012025Y002899D01*
X012038Y002945D01*
X012056Y002990D01*
X012076Y003034D01*
X012101Y003076D01*
X012129Y003115D01*
X012159Y003152D01*
X012193Y003186D01*
X012230Y003218D01*
X012268Y003247D01*
X012309Y003272D01*
X012352Y003294D01*
X012397Y003312D01*
X012443Y003326D01*
X012490Y003337D01*
X012538Y003344D01*
X012586Y003347D01*
X012634Y003346D01*
X012682Y003341D01*
X012730Y003332D01*
X012776Y003320D01*
X012821Y003303D01*
X012865Y003283D01*
X012907Y003260D01*
X012947Y003233D01*
X012985Y003203D01*
X013020Y003170D01*
X013052Y003134D01*
X013082Y003096D01*
X013108Y003055D01*
X013130Y003012D01*
X013150Y002968D01*
X013165Y002923D01*
X013177Y002876D01*
X013185Y002828D01*
X013189Y002780D01*
X013189Y002732D01*
X013185Y002684D01*
X013177Y002636D01*
X013165Y002589D01*
X013150Y002544D01*
X013130Y002500D01*
X013108Y002457D01*
X013082Y002416D01*
X013052Y002378D01*
X013020Y002342D01*
X012985Y002309D01*
X012947Y002279D01*
X012907Y002252D01*
X012865Y002229D01*
X012821Y002209D01*
X012776Y002192D01*
X012730Y002180D01*
X012682Y002171D01*
X012634Y002166D01*
X012586Y002165D01*
X012538Y002168D01*
X012490Y002175D01*
X012443Y002186D01*
X012397Y002200D01*
X012352Y002218D01*
X012309Y002240D01*
X012268Y002265D01*
X012230Y002294D01*
X012193Y002326D01*
X012159Y002360D01*
X012129Y002397D01*
X012101Y002436D01*
X012076Y002478D01*
X012056Y002522D01*
X012038Y002567D01*
X012025Y002613D01*
X012015Y002660D01*
X012009Y002708D01*
X012007Y002756D01*
X006496Y001181D02*
X006498Y001229D01*
X006504Y001277D01*
X006514Y001324D01*
X006527Y001370D01*
X006545Y001415D01*
X006565Y001459D01*
X006590Y001501D01*
X006618Y001540D01*
X006648Y001577D01*
X006682Y001611D01*
X006719Y001643D01*
X006757Y001672D01*
X006798Y001697D01*
X006841Y001719D01*
X006886Y001737D01*
X006932Y001751D01*
X006979Y001762D01*
X007027Y001769D01*
X007075Y001772D01*
X007123Y001771D01*
X007171Y001766D01*
X007219Y001757D01*
X007265Y001745D01*
X007310Y001728D01*
X007354Y001708D01*
X007396Y001685D01*
X007436Y001658D01*
X007474Y001628D01*
X007509Y001595D01*
X007541Y001559D01*
X007571Y001521D01*
X007597Y001480D01*
X007619Y001437D01*
X007639Y001393D01*
X007654Y001348D01*
X007666Y001301D01*
X007674Y001253D01*
X007678Y001205D01*
X007678Y001157D01*
X007674Y001109D01*
X007666Y001061D01*
X007654Y001014D01*
X007639Y000969D01*
X007619Y000925D01*
X007597Y000882D01*
X007571Y000841D01*
X007541Y000803D01*
X007509Y000767D01*
X007474Y000734D01*
X007436Y000704D01*
X007396Y000677D01*
X007354Y000654D01*
X007310Y000634D01*
X007265Y000617D01*
X007219Y000605D01*
X007171Y000596D01*
X007123Y000591D01*
X007075Y000590D01*
X007027Y000593D01*
X006979Y000600D01*
X006932Y000611D01*
X006886Y000625D01*
X006841Y000643D01*
X006798Y000665D01*
X006757Y000690D01*
X006719Y000719D01*
X006682Y000751D01*
X006648Y000785D01*
X006618Y000822D01*
X006590Y000861D01*
X006565Y000903D01*
X006545Y000947D01*
X006527Y000992D01*
X006514Y001038D01*
X006504Y001085D01*
X006498Y001133D01*
X006496Y001181D01*
X000590Y007087D02*
X000592Y007135D01*
X000598Y007183D01*
X000608Y007230D01*
X000621Y007276D01*
X000639Y007321D01*
X000659Y007365D01*
X000684Y007407D01*
X000712Y007446D01*
X000742Y007483D01*
X000776Y007517D01*
X000813Y007549D01*
X000851Y007578D01*
X000892Y007603D01*
X000935Y007625D01*
X000980Y007643D01*
X001026Y007657D01*
X001073Y007668D01*
X001121Y007675D01*
X001169Y007678D01*
X001217Y007677D01*
X001265Y007672D01*
X001313Y007663D01*
X001359Y007651D01*
X001404Y007634D01*
X001448Y007614D01*
X001490Y007591D01*
X001530Y007564D01*
X001568Y007534D01*
X001603Y007501D01*
X001635Y007465D01*
X001665Y007427D01*
X001691Y007386D01*
X001713Y007343D01*
X001733Y007299D01*
X001748Y007254D01*
X001760Y007207D01*
X001768Y007159D01*
X001772Y007111D01*
X001772Y007063D01*
X001768Y007015D01*
X001760Y006967D01*
X001748Y006920D01*
X001733Y006875D01*
X001713Y006831D01*
X001691Y006788D01*
X001665Y006747D01*
X001635Y006709D01*
X001603Y006673D01*
X001568Y006640D01*
X001530Y006610D01*
X001490Y006583D01*
X001448Y006560D01*
X001404Y006540D01*
X001359Y006523D01*
X001313Y006511D01*
X001265Y006502D01*
X001217Y006497D01*
X001169Y006496D01*
X001121Y006499D01*
X001073Y006506D01*
X001026Y006517D01*
X000980Y006531D01*
X000935Y006549D01*
X000892Y006571D01*
X000851Y006596D01*
X000813Y006625D01*
X000776Y006657D01*
X000742Y006691D01*
X000712Y006728D01*
X000684Y006767D01*
X000659Y006809D01*
X000639Y006853D01*
X000621Y006898D01*
X000608Y006944D01*
X000598Y006991D01*
X000592Y007039D01*
X000590Y007087D01*
X000590Y012598D02*
X000592Y012646D01*
X000598Y012694D01*
X000608Y012741D01*
X000621Y012787D01*
X000639Y012832D01*
X000659Y012876D01*
X000684Y012918D01*
X000712Y012957D01*
X000742Y012994D01*
X000776Y013028D01*
X000813Y013060D01*
X000851Y013089D01*
X000892Y013114D01*
X000935Y013136D01*
X000980Y013154D01*
X001026Y013168D01*
X001073Y013179D01*
X001121Y013186D01*
X001169Y013189D01*
X001217Y013188D01*
X001265Y013183D01*
X001313Y013174D01*
X001359Y013162D01*
X001404Y013145D01*
X001448Y013125D01*
X001490Y013102D01*
X001530Y013075D01*
X001568Y013045D01*
X001603Y013012D01*
X001635Y012976D01*
X001665Y012938D01*
X001691Y012897D01*
X001713Y012854D01*
X001733Y012810D01*
X001748Y012765D01*
X001760Y012718D01*
X001768Y012670D01*
X001772Y012622D01*
X001772Y012574D01*
X001768Y012526D01*
X001760Y012478D01*
X001748Y012431D01*
X001733Y012386D01*
X001713Y012342D01*
X001691Y012299D01*
X001665Y012258D01*
X001635Y012220D01*
X001603Y012184D01*
X001568Y012151D01*
X001530Y012121D01*
X001490Y012094D01*
X001448Y012071D01*
X001404Y012051D01*
X001359Y012034D01*
X001313Y012022D01*
X001265Y012013D01*
X001217Y012008D01*
X001169Y012007D01*
X001121Y012010D01*
X001073Y012017D01*
X001026Y012028D01*
X000980Y012042D01*
X000935Y012060D01*
X000892Y012082D01*
X000851Y012107D01*
X000813Y012136D01*
X000776Y012168D01*
X000742Y012202D01*
X000712Y012239D01*
X000684Y012278D01*
X000659Y012320D01*
X000639Y012364D01*
X000621Y012409D01*
X000608Y012455D01*
X000598Y012502D01*
X000592Y012550D01*
X000590Y012598D01*
X013189Y018504D02*
X013191Y018552D01*
X013197Y018600D01*
X013207Y018647D01*
X013220Y018693D01*
X013238Y018738D01*
X013258Y018782D01*
X013283Y018824D01*
X013311Y018863D01*
X013341Y018900D01*
X013375Y018934D01*
X013412Y018966D01*
X013450Y018995D01*
X013491Y019020D01*
X013534Y019042D01*
X013579Y019060D01*
X013625Y019074D01*
X013672Y019085D01*
X013720Y019092D01*
X013768Y019095D01*
X013816Y019094D01*
X013864Y019089D01*
X013912Y019080D01*
X013958Y019068D01*
X014003Y019051D01*
X014047Y019031D01*
X014089Y019008D01*
X014129Y018981D01*
X014167Y018951D01*
X014202Y018918D01*
X014234Y018882D01*
X014264Y018844D01*
X014290Y018803D01*
X014312Y018760D01*
X014332Y018716D01*
X014347Y018671D01*
X014359Y018624D01*
X014367Y018576D01*
X014371Y018528D01*
X014371Y018480D01*
X014367Y018432D01*
X014359Y018384D01*
X014347Y018337D01*
X014332Y018292D01*
X014312Y018248D01*
X014290Y018205D01*
X014264Y018164D01*
X014234Y018126D01*
X014202Y018090D01*
X014167Y018057D01*
X014129Y018027D01*
X014089Y018000D01*
X014047Y017977D01*
X014003Y017957D01*
X013958Y017940D01*
X013912Y017928D01*
X013864Y017919D01*
X013816Y017914D01*
X013768Y017913D01*
X013720Y017916D01*
X013672Y017923D01*
X013625Y017934D01*
X013579Y017948D01*
X013534Y017966D01*
X013491Y017988D01*
X013450Y018013D01*
X013412Y018042D01*
X013375Y018074D01*
X013341Y018108D01*
X013311Y018145D01*
X013283Y018184D01*
X013258Y018226D01*
X013238Y018270D01*
X013220Y018315D01*
X013207Y018361D01*
X013197Y018408D01*
X013191Y018456D01*
X013189Y018504D01*
X017913Y015354D02*
X017915Y015402D01*
X017921Y015450D01*
X017931Y015497D01*
X017944Y015543D01*
X017962Y015588D01*
X017982Y015632D01*
X018007Y015674D01*
X018035Y015713D01*
X018065Y015750D01*
X018099Y015784D01*
X018136Y015816D01*
X018174Y015845D01*
X018215Y015870D01*
X018258Y015892D01*
X018303Y015910D01*
X018349Y015924D01*
X018396Y015935D01*
X018444Y015942D01*
X018492Y015945D01*
X018540Y015944D01*
X018588Y015939D01*
X018636Y015930D01*
X018682Y015918D01*
X018727Y015901D01*
X018771Y015881D01*
X018813Y015858D01*
X018853Y015831D01*
X018891Y015801D01*
X018926Y015768D01*
X018958Y015732D01*
X018988Y015694D01*
X019014Y015653D01*
X019036Y015610D01*
X019056Y015566D01*
X019071Y015521D01*
X019083Y015474D01*
X019091Y015426D01*
X019095Y015378D01*
X019095Y015330D01*
X019091Y015282D01*
X019083Y015234D01*
X019071Y015187D01*
X019056Y015142D01*
X019036Y015098D01*
X019014Y015055D01*
X018988Y015014D01*
X018958Y014976D01*
X018926Y014940D01*
X018891Y014907D01*
X018853Y014877D01*
X018813Y014850D01*
X018771Y014827D01*
X018727Y014807D01*
X018682Y014790D01*
X018636Y014778D01*
X018588Y014769D01*
X018540Y014764D01*
X018492Y014763D01*
X018444Y014766D01*
X018396Y014773D01*
X018349Y014784D01*
X018303Y014798D01*
X018258Y014816D01*
X018215Y014838D01*
X018174Y014863D01*
X018136Y014892D01*
X018099Y014924D01*
X018065Y014958D01*
X018035Y014995D01*
X018007Y015034D01*
X017982Y015076D01*
X017962Y015120D01*
X017944Y015165D01*
X017931Y015211D01*
X017921Y015258D01*
X017915Y015306D01*
X017913Y015354D01*
X017913Y008661D02*
X017915Y008709D01*
X017921Y008757D01*
X017931Y008804D01*
X017944Y008850D01*
X017962Y008895D01*
X017982Y008939D01*
X018007Y008981D01*
X018035Y009020D01*
X018065Y009057D01*
X018099Y009091D01*
X018136Y009123D01*
X018174Y009152D01*
X018215Y009177D01*
X018258Y009199D01*
X018303Y009217D01*
X018349Y009231D01*
X018396Y009242D01*
X018444Y009249D01*
X018492Y009252D01*
X018540Y009251D01*
X018588Y009246D01*
X018636Y009237D01*
X018682Y009225D01*
X018727Y009208D01*
X018771Y009188D01*
X018813Y009165D01*
X018853Y009138D01*
X018891Y009108D01*
X018926Y009075D01*
X018958Y009039D01*
X018988Y009001D01*
X019014Y008960D01*
X019036Y008917D01*
X019056Y008873D01*
X019071Y008828D01*
X019083Y008781D01*
X019091Y008733D01*
X019095Y008685D01*
X019095Y008637D01*
X019091Y008589D01*
X019083Y008541D01*
X019071Y008494D01*
X019056Y008449D01*
X019036Y008405D01*
X019014Y008362D01*
X018988Y008321D01*
X018958Y008283D01*
X018926Y008247D01*
X018891Y008214D01*
X018853Y008184D01*
X018813Y008157D01*
X018771Y008134D01*
X018727Y008114D01*
X018682Y008097D01*
X018636Y008085D01*
X018588Y008076D01*
X018540Y008071D01*
X018492Y008070D01*
X018444Y008073D01*
X018396Y008080D01*
X018349Y008091D01*
X018303Y008105D01*
X018258Y008123D01*
X018215Y008145D01*
X018174Y008170D01*
X018136Y008199D01*
X018099Y008231D01*
X018065Y008265D01*
X018035Y008302D01*
X018007Y008341D01*
X017982Y008383D01*
X017962Y008427D01*
X017944Y008472D01*
X017931Y008518D01*
X017921Y008565D01*
X017915Y008613D01*
X017913Y008661D01*
D14*
X008228Y017352D02*
X008140Y017470D01*
X008134Y017470D01*
X008144Y017470D01*
X008140Y017470D02*
X008180Y017470D01*
X008134Y017470D02*
X008116Y017470D01*
X008205Y017352D01*
X008116Y017470D02*
X007986Y017470D01*
X007986Y017600D01*
X007998Y017600D01*
X007998Y017352D01*
X007986Y017352D02*
X007986Y017470D01*
X007998Y017600D02*
X008116Y017600D01*
X008147Y017600D01*
X008116Y017600D02*
X008178Y017600D01*
X008190Y017599D01*
X008202Y017594D01*
X008213Y017588D01*
X008222Y017579D01*
X008228Y017568D01*
X008233Y017556D01*
X008234Y017544D01*
X008234Y017525D01*
X008233Y017513D01*
X008229Y017502D01*
X008222Y017491D01*
X008214Y017483D01*
X008203Y017476D01*
X008192Y017472D01*
X008180Y017471D01*
X008211Y017537D02*
X008209Y017551D01*
X008205Y017565D01*
X008197Y017577D01*
X008187Y017587D01*
X008175Y017595D01*
X008161Y017599D01*
X008147Y017601D01*
X008210Y017537D02*
X008208Y017522D01*
X008203Y017508D01*
X008196Y017496D01*
X008185Y017485D01*
X008173Y017478D01*
X008159Y017473D01*
X008144Y017471D01*
X007833Y017449D02*
X007833Y017500D01*
X007809Y017504D02*
X007809Y017444D01*
X007833Y017449D02*
X007831Y017430D01*
X007826Y017412D01*
X007818Y017395D01*
X007808Y017379D01*
X007794Y017365D01*
X007778Y017355D01*
X007761Y017347D01*
X007743Y017342D01*
X007724Y017340D01*
X007724Y017341D02*
X007673Y017341D01*
X007706Y017341D01*
X007673Y017341D02*
X007660Y017341D01*
X007673Y017341D02*
X007656Y017343D01*
X007639Y017347D01*
X007623Y017354D01*
X007609Y017364D01*
X007596Y017377D01*
X007586Y017391D01*
X007579Y017407D01*
X007575Y017424D01*
X007573Y017441D01*
X007573Y017506D01*
X007549Y017504D02*
X007549Y017451D01*
X007551Y017432D01*
X007556Y017413D01*
X007564Y017396D01*
X007575Y017380D01*
X007589Y017366D01*
X007604Y017355D01*
X007622Y017347D01*
X007641Y017342D01*
X007660Y017340D01*
X007706Y017341D02*
X007724Y017343D01*
X007741Y017347D01*
X007757Y017355D01*
X007772Y017365D01*
X007785Y017378D01*
X007795Y017392D01*
X007803Y017409D01*
X007807Y017426D01*
X007809Y017444D01*
X007833Y017500D02*
X007831Y017519D01*
X007826Y017538D01*
X007818Y017556D01*
X007807Y017572D01*
X007793Y017586D01*
X007777Y017597D01*
X007759Y017605D01*
X007740Y017610D01*
X007721Y017612D01*
X007679Y017612D01*
X007701Y017612D01*
X007679Y017612D02*
X007658Y017612D01*
X007679Y017612D02*
X007661Y017610D01*
X007643Y017606D01*
X007626Y017598D01*
X007611Y017587D01*
X007598Y017574D01*
X007587Y017559D01*
X007579Y017542D01*
X007575Y017524D01*
X007573Y017506D01*
X007549Y017504D02*
X007551Y017523D01*
X007556Y017541D01*
X007564Y017559D01*
X007575Y017574D01*
X007588Y017587D01*
X007604Y017598D01*
X007621Y017606D01*
X007639Y017611D01*
X007658Y017613D01*
X007701Y017612D02*
X007720Y017610D01*
X007738Y017605D01*
X007755Y017598D01*
X007770Y017587D01*
X007784Y017573D01*
X007795Y017558D01*
X007802Y017541D01*
X007807Y017523D01*
X007809Y017504D01*
X007419Y017600D02*
X007313Y017600D01*
X007313Y017352D01*
X007301Y017352D01*
X007301Y017600D01*
X007313Y017600D01*
X007301Y017600D02*
X007183Y017600D01*
X007030Y017600D02*
X006947Y017600D01*
X006891Y017600D01*
X006875Y017598D01*
X006859Y017593D01*
X006845Y017584D01*
X006833Y017572D01*
X006824Y017558D01*
X006819Y017542D01*
X006817Y017526D01*
X006817Y017428D01*
X006841Y017465D02*
X006841Y017488D01*
X006817Y017428D02*
X006818Y017413D01*
X006823Y017399D01*
X006830Y017386D01*
X006839Y017374D01*
X006851Y017365D01*
X006864Y017358D01*
X006878Y017353D01*
X006893Y017352D01*
X006947Y017352D01*
X007030Y017352D01*
X006947Y017353D02*
X006928Y017355D01*
X006910Y017361D01*
X006893Y017369D01*
X006878Y017380D01*
X006865Y017394D01*
X006854Y017410D01*
X006847Y017428D01*
X006842Y017446D01*
X006841Y017465D01*
X006841Y017488D02*
X006842Y017507D01*
X006847Y017525D01*
X006854Y017543D01*
X006865Y017559D01*
X006878Y017573D01*
X006893Y017584D01*
X006910Y017592D01*
X006928Y017598D01*
X006947Y017600D01*
X006652Y017600D02*
X006652Y017411D01*
X006640Y017423D02*
X006640Y017600D01*
X006640Y017423D02*
X006638Y017406D01*
X006632Y017390D01*
X006624Y017376D01*
X006613Y017363D01*
X006599Y017353D01*
X006584Y017345D01*
X006568Y017341D01*
X006551Y017340D01*
X006551Y017341D02*
X006515Y017341D01*
X006551Y017341D02*
X006581Y017341D01*
X006551Y017341D02*
X006478Y017341D01*
X006464Y017342D01*
X006450Y017347D01*
X006437Y017353D01*
X006426Y017363D01*
X006416Y017374D01*
X006410Y017387D01*
X006405Y017401D01*
X006404Y017415D01*
X006404Y017600D01*
X006427Y017600D02*
X006427Y017428D01*
X006429Y017411D01*
X006434Y017394D01*
X006442Y017379D01*
X006453Y017366D01*
X006466Y017355D01*
X006481Y017347D01*
X006498Y017342D01*
X006515Y017340D01*
X006581Y017340D02*
X006597Y017342D01*
X006612Y017347D01*
X006625Y017355D01*
X006637Y017367D01*
X006645Y017380D01*
X006650Y017395D01*
X006652Y017411D01*
X006238Y017442D02*
X006238Y017517D01*
X006215Y017504D02*
X006215Y017456D01*
X006238Y017442D02*
X006236Y017425D01*
X006231Y017408D01*
X006223Y017393D01*
X006212Y017379D01*
X006198Y017368D01*
X006183Y017360D01*
X006166Y017355D01*
X006149Y017353D01*
X006149Y017352D02*
X006111Y017352D01*
X005990Y017352D01*
X005990Y017612D01*
X006002Y017612D01*
X006112Y017612D01*
X006143Y017612D01*
X006162Y017610D01*
X006179Y017605D01*
X006196Y017596D01*
X006210Y017584D01*
X006222Y017570D01*
X006231Y017553D01*
X006236Y017536D01*
X006238Y017517D01*
X006214Y017504D02*
X006213Y017522D01*
X006209Y017540D01*
X006201Y017557D01*
X006191Y017572D01*
X006179Y017586D01*
X006164Y017596D01*
X006148Y017605D01*
X006130Y017610D01*
X006112Y017612D01*
X006002Y017612D02*
X006002Y017352D01*
X006111Y017352D02*
X006129Y017354D01*
X006147Y017358D01*
X006163Y017366D01*
X006178Y017376D01*
X006191Y017389D01*
X006201Y017404D01*
X006209Y017420D01*
X006213Y017438D01*
X006215Y017456D01*
X005801Y017352D02*
X005801Y017600D01*
X005789Y017600D01*
X005789Y017352D01*
X005801Y017352D01*
X005789Y017352D02*
X005754Y017352D01*
X005600Y017600D01*
X005589Y017600D02*
X005742Y017352D01*
X005754Y017352D01*
X005553Y017352D02*
X005553Y017600D01*
X005589Y017600D01*
X005553Y017600D02*
X005541Y017600D01*
X005541Y017352D01*
X005376Y017449D02*
X005376Y017500D01*
X005352Y017504D02*
X005352Y017444D01*
X005376Y017449D02*
X005374Y017430D01*
X005369Y017412D01*
X005361Y017395D01*
X005351Y017379D01*
X005337Y017365D01*
X005321Y017355D01*
X005304Y017347D01*
X005286Y017342D01*
X005267Y017340D01*
X005267Y017341D02*
X005217Y017341D01*
X005249Y017341D01*
X005217Y017341D02*
X005203Y017341D01*
X005217Y017341D02*
X005200Y017343D01*
X005183Y017347D01*
X005167Y017354D01*
X005153Y017364D01*
X005140Y017377D01*
X005130Y017391D01*
X005123Y017407D01*
X005119Y017424D01*
X005117Y017441D01*
X005116Y017441D02*
X005116Y017506D01*
X005093Y017504D02*
X005093Y017451D01*
X005092Y017451D02*
X005094Y017432D01*
X005099Y017413D01*
X005107Y017396D01*
X005118Y017380D01*
X005132Y017366D01*
X005147Y017355D01*
X005165Y017347D01*
X005184Y017342D01*
X005203Y017340D01*
X005249Y017341D02*
X005267Y017343D01*
X005284Y017347D01*
X005300Y017355D01*
X005315Y017365D01*
X005328Y017378D01*
X005338Y017392D01*
X005346Y017409D01*
X005350Y017426D01*
X005352Y017444D01*
X005376Y017500D02*
X005374Y017519D01*
X005369Y017538D01*
X005361Y017556D01*
X005350Y017572D01*
X005336Y017586D01*
X005320Y017597D01*
X005302Y017605D01*
X005283Y017610D01*
X005264Y017612D01*
X005222Y017612D01*
X005244Y017612D01*
X005222Y017612D02*
X005201Y017612D01*
X005222Y017612D02*
X005204Y017610D01*
X005186Y017606D01*
X005169Y017598D01*
X005154Y017587D01*
X005141Y017574D01*
X005130Y017559D01*
X005122Y017542D01*
X005118Y017524D01*
X005116Y017506D01*
X005092Y017504D02*
X005094Y017523D01*
X005099Y017541D01*
X005107Y017559D01*
X005118Y017574D01*
X005131Y017587D01*
X005147Y017598D01*
X005164Y017606D01*
X005182Y017611D01*
X005201Y017613D01*
X005244Y017612D02*
X005263Y017610D01*
X005281Y017605D01*
X005298Y017598D01*
X005313Y017587D01*
X005327Y017573D01*
X005338Y017558D01*
X005345Y017541D01*
X005350Y017523D01*
X005352Y017504D01*
X004939Y017600D02*
X004856Y017600D01*
X004800Y017600D01*
X004784Y017598D01*
X004768Y017593D01*
X004754Y017584D01*
X004742Y017572D01*
X004733Y017558D01*
X004728Y017542D01*
X004726Y017526D01*
X004726Y017428D01*
X004750Y017465D02*
X004750Y017494D01*
X004726Y017428D02*
X004727Y017413D01*
X004732Y017399D01*
X004739Y017386D01*
X004748Y017374D01*
X004760Y017365D01*
X004773Y017358D01*
X004787Y017353D01*
X004802Y017352D01*
X004850Y017352D01*
X004939Y017352D01*
X004850Y017353D02*
X004832Y017356D01*
X004814Y017362D01*
X004798Y017370D01*
X004783Y017382D01*
X004771Y017395D01*
X004761Y017411D01*
X004755Y017428D01*
X004751Y017446D01*
X004750Y017465D01*
X004750Y017494D02*
X004752Y017512D01*
X004756Y017530D01*
X004764Y017547D01*
X004775Y017562D01*
X004788Y017575D01*
X004803Y017586D01*
X004820Y017594D01*
X004838Y017598D01*
X004856Y017600D01*
X004537Y017600D02*
X004537Y017352D01*
X004514Y017352D01*
X004514Y017600D01*
X004313Y017600D02*
X004313Y017352D01*
X004177Y017352D02*
X004266Y017600D01*
X004313Y017600D01*
X004065Y017600D02*
X004148Y017352D01*
X004177Y017352D01*
X004018Y017352D02*
X004018Y017600D01*
X004065Y017600D01*
X003817Y017600D02*
X003711Y017600D01*
X003680Y017600D01*
X003680Y017601D02*
X003663Y017599D01*
X003646Y017594D01*
X003631Y017586D01*
X003618Y017575D01*
X003607Y017562D01*
X003599Y017547D01*
X003594Y017530D01*
X003592Y017513D01*
X003593Y017513D02*
X003593Y017476D01*
X003817Y017476D01*
X003711Y017601D02*
X003694Y017599D01*
X003678Y017593D01*
X003664Y017585D01*
X003651Y017574D01*
X003641Y017560D01*
X003633Y017545D01*
X003629Y017529D01*
X003628Y017512D01*
X003628Y017435D01*
X003593Y017442D02*
X003593Y017476D01*
X003592Y017442D02*
X003594Y017424D01*
X003599Y017408D01*
X003607Y017392D01*
X003618Y017378D01*
X003632Y017367D01*
X003648Y017359D01*
X003664Y017354D01*
X003682Y017352D01*
X003711Y017352D01*
X003817Y017352D01*
X003711Y017352D02*
X003695Y017354D01*
X003679Y017358D01*
X003665Y017366D01*
X003652Y017376D01*
X003642Y017389D01*
X003634Y017403D01*
X003630Y017419D01*
X003628Y017435D01*
X003439Y017421D02*
X003437Y017435D01*
X003433Y017447D01*
X003426Y017459D01*
X003416Y017469D01*
X003404Y017476D01*
X003392Y017480D01*
X003378Y017482D01*
X003327Y017482D01*
X003352Y017482D01*
X003327Y017482D02*
X003268Y017482D01*
X003254Y017482D01*
X003268Y017482D02*
X003226Y017482D01*
X003167Y017541D02*
X003168Y017554D01*
X003173Y017567D01*
X003180Y017578D01*
X003189Y017587D01*
X003200Y017594D01*
X003213Y017599D01*
X003226Y017600D01*
X003268Y017600D01*
X003246Y017600D01*
X003268Y017600D02*
X003415Y017600D01*
X003254Y017482D02*
X003240Y017484D01*
X003227Y017488D01*
X003215Y017496D01*
X003205Y017506D01*
X003197Y017518D01*
X003193Y017531D01*
X003191Y017545D01*
X003167Y017541D02*
X003168Y017528D01*
X003173Y017515D01*
X003180Y017504D01*
X003189Y017495D01*
X003200Y017488D01*
X003213Y017483D01*
X003226Y017482D01*
X003191Y017545D02*
X003192Y017557D01*
X003196Y017569D01*
X003203Y017579D01*
X003212Y017588D01*
X003222Y017595D01*
X003234Y017599D01*
X003246Y017600D01*
X003415Y017419D02*
X003413Y017404D01*
X003408Y017390D01*
X003401Y017378D01*
X003390Y017367D01*
X003378Y017360D01*
X003364Y017355D01*
X003349Y017353D01*
X003349Y017352D02*
X003327Y017352D01*
X003370Y017352D01*
X003327Y017352D02*
X003191Y017352D01*
X003352Y017483D02*
X003366Y017481D01*
X003380Y017477D01*
X003392Y017469D01*
X003402Y017459D01*
X003410Y017447D01*
X003414Y017433D01*
X003416Y017419D01*
X003439Y017421D02*
X003437Y017406D01*
X003432Y017391D01*
X003424Y017378D01*
X003413Y017367D01*
X003400Y017359D01*
X003385Y017354D01*
X003370Y017352D01*
X003427Y017978D02*
X003179Y017978D01*
X003179Y018935D01*
X003297Y018953D01*
X003415Y018959D01*
X003846Y018959D01*
X003907Y018955D01*
X003966Y018943D01*
X004024Y018923D01*
X004063Y018903D01*
X004097Y018875D01*
X004124Y018841D01*
X004142Y018803D01*
X004154Y018764D01*
X004159Y018722D01*
X004159Y018575D01*
X004157Y018544D01*
X004149Y018514D01*
X004136Y018486D01*
X004114Y018459D01*
X004088Y018435D01*
X004059Y018415D01*
X004022Y018396D01*
X003982Y018384D01*
X003941Y018380D01*
X003888Y018380D01*
X003888Y018339D01*
X004177Y017978D01*
X003911Y017978D01*
X003604Y018368D01*
X003604Y018451D01*
X003722Y018451D01*
X003773Y018454D01*
X003823Y018466D01*
X003870Y018486D01*
X003893Y018508D01*
X003911Y018533D01*
X003924Y018559D01*
X003932Y018587D01*
X003935Y018616D01*
X003935Y018734D01*
X003932Y018760D01*
X003922Y018784D01*
X003906Y018805D01*
X003881Y018826D01*
X003852Y018841D01*
X003824Y018854D01*
X003795Y018862D01*
X003764Y018864D01*
X003496Y018864D01*
X003478Y018862D01*
X003462Y018855D01*
X003447Y018844D01*
X003436Y018830D01*
X003430Y018813D01*
X003427Y018795D01*
X003427Y017978D01*
X003427Y018028D02*
X003179Y018028D01*
X003179Y018086D02*
X003427Y018086D01*
X003427Y018144D02*
X003179Y018144D01*
X003179Y018201D02*
X003427Y018201D01*
X003427Y018259D02*
X003179Y018259D01*
X003179Y018316D02*
X003427Y018316D01*
X003427Y018374D02*
X003179Y018374D01*
X003179Y018431D02*
X003427Y018431D01*
X003427Y018489D02*
X003179Y018489D01*
X003179Y018547D02*
X003427Y018547D01*
X003427Y018604D02*
X003179Y018604D01*
X003179Y018662D02*
X003427Y018662D01*
X003427Y018719D02*
X003179Y018719D01*
X003179Y018777D02*
X003427Y018777D01*
X003440Y018835D02*
X003179Y018835D01*
X003179Y018892D02*
X004077Y018892D01*
X004127Y018835D02*
X003864Y018835D01*
X003925Y018777D02*
X004150Y018777D01*
X004159Y018719D02*
X003935Y018719D01*
X003935Y018662D02*
X004159Y018662D01*
X004159Y018604D02*
X003934Y018604D01*
X003918Y018547D02*
X004157Y018547D01*
X004137Y018489D02*
X003873Y018489D01*
X003888Y018374D02*
X003604Y018374D01*
X003604Y018431D02*
X004083Y018431D01*
X003906Y018316D02*
X003645Y018316D01*
X003691Y018259D02*
X003952Y018259D01*
X003998Y018201D02*
X003736Y018201D01*
X003781Y018144D02*
X004045Y018144D01*
X004091Y018086D02*
X003827Y018086D01*
X003872Y018028D02*
X004137Y018028D01*
X004422Y018144D02*
X004664Y018144D01*
X004668Y018133D02*
X004656Y018167D01*
X004646Y018232D01*
X004644Y018297D01*
X004644Y018457D01*
X004407Y018457D01*
X004407Y018215D01*
X004415Y018164D01*
X004433Y018116D01*
X004461Y018073D01*
X004499Y018038D01*
X004543Y018010D01*
X004591Y017990D01*
X004666Y017966D01*
X004744Y017955D01*
X005069Y017955D01*
X005150Y017965D01*
X005228Y017990D01*
X005267Y018002D01*
X005302Y018022D01*
X005333Y018047D01*
X005358Y018079D01*
X005381Y018105D01*
X005399Y018135D01*
X005409Y018168D01*
X005411Y018203D01*
X005411Y018699D01*
X005402Y018749D01*
X005384Y018797D01*
X005358Y018841D01*
X005320Y018875D01*
X005276Y018903D01*
X005228Y018923D01*
X005141Y018948D01*
X005051Y018959D01*
X004774Y018959D01*
X004686Y018948D01*
X004602Y018923D01*
X004557Y018909D01*
X004516Y018887D01*
X004478Y018858D01*
X004443Y018811D01*
X004419Y018757D01*
X004407Y018699D01*
X004407Y018457D01*
X004644Y018457D01*
X004644Y018598D01*
X004647Y018670D01*
X004656Y018740D01*
X004663Y018765D01*
X004676Y018788D01*
X004693Y018807D01*
X004715Y018823D01*
X004744Y018842D01*
X004776Y018855D01*
X004810Y018863D01*
X004844Y018864D01*
X004986Y018864D01*
X005047Y018855D01*
X005104Y018835D01*
X005362Y018835D01*
X005392Y018777D02*
X005156Y018777D01*
X005157Y018775D02*
X005175Y018740D01*
X005186Y018673D01*
X005187Y018604D01*
X005411Y018604D01*
X005411Y018547D02*
X005187Y018547D01*
X005187Y018604D02*
X005187Y018297D01*
X005185Y018232D01*
X005175Y018167D01*
X005167Y018138D01*
X005153Y018110D01*
X005134Y018087D01*
X005110Y018067D01*
X005077Y018050D01*
X005041Y018040D01*
X005004Y018037D01*
X004839Y018037D01*
X004805Y018038D01*
X004772Y018045D01*
X004742Y018059D01*
X004715Y018079D01*
X004688Y018103D01*
X004668Y018133D01*
X004707Y018086D02*
X004452Y018086D01*
X004514Y018028D02*
X005310Y018028D01*
X005365Y018086D02*
X005133Y018086D01*
X005169Y018144D02*
X005401Y018144D01*
X005411Y018201D02*
X005180Y018201D01*
X005186Y018259D02*
X005411Y018259D01*
X005411Y018316D02*
X005187Y018316D01*
X005187Y018374D02*
X005411Y018374D01*
X005411Y018431D02*
X005187Y018431D01*
X005187Y018489D02*
X005411Y018489D01*
X005411Y018662D02*
X005186Y018662D01*
X005178Y018719D02*
X005408Y018719D01*
X005293Y018892D02*
X004526Y018892D01*
X004461Y018835D02*
X004733Y018835D01*
X004670Y018777D02*
X004428Y018777D01*
X004412Y018719D02*
X004653Y018719D01*
X004646Y018662D02*
X004407Y018662D01*
X004407Y018604D02*
X004644Y018604D01*
X004644Y018547D02*
X004407Y018547D01*
X004407Y018489D02*
X004644Y018489D01*
X004644Y018431D02*
X004407Y018431D01*
X004407Y018374D02*
X004644Y018374D01*
X004644Y018316D02*
X004407Y018316D01*
X004407Y018259D02*
X004645Y018259D01*
X004651Y018201D02*
X004409Y018201D01*
X004650Y017971D02*
X005168Y017971D01*
X005671Y017978D02*
X005919Y017978D01*
X005919Y018344D01*
X005922Y018362D01*
X005929Y018380D01*
X005940Y018394D01*
X005955Y018406D01*
X005972Y018413D01*
X005991Y018415D01*
X006429Y018415D01*
X006447Y018413D01*
X006464Y018406D01*
X006478Y018395D01*
X006489Y018381D01*
X006496Y018364D01*
X006498Y018346D01*
X006498Y017978D01*
X006734Y017978D01*
X006734Y018935D01*
X006498Y018935D01*
X006498Y018601D01*
X006496Y018583D01*
X006489Y018567D01*
X006478Y018553D01*
X006464Y018542D01*
X006448Y018536D01*
X006431Y018533D01*
X005988Y018533D01*
X005970Y018536D01*
X005954Y018543D01*
X005939Y018554D01*
X005929Y018568D01*
X005922Y018584D01*
X005919Y018602D01*
X005919Y018935D01*
X005671Y018935D01*
X005671Y017978D01*
X005671Y018028D02*
X005919Y018028D01*
X005919Y018086D02*
X005671Y018086D01*
X005671Y018144D02*
X005919Y018144D01*
X005919Y018201D02*
X005671Y018201D01*
X005671Y018259D02*
X005919Y018259D01*
X005919Y018316D02*
X005671Y018316D01*
X005671Y018374D02*
X005926Y018374D01*
X005949Y018547D02*
X005671Y018547D01*
X005671Y018604D02*
X005919Y018604D01*
X005919Y018662D02*
X005671Y018662D01*
X005671Y018719D02*
X005919Y018719D01*
X005919Y018777D02*
X005671Y018777D01*
X005671Y018835D02*
X005919Y018835D01*
X005919Y018892D02*
X005671Y018892D01*
X005671Y018489D02*
X006734Y018489D01*
X006734Y018431D02*
X005671Y018431D01*
X005157Y018775D02*
X005133Y018807D01*
X005104Y018835D01*
X005124Y018950D02*
X004699Y018950D01*
X003933Y018950D02*
X003275Y018950D01*
X006470Y018547D02*
X006734Y018547D01*
X006734Y018604D02*
X006498Y018604D01*
X006498Y018662D02*
X006734Y018662D01*
X006734Y018719D02*
X006498Y018719D01*
X006498Y018777D02*
X006734Y018777D01*
X006734Y018835D02*
X006498Y018835D01*
X006498Y018892D02*
X006734Y018892D01*
X007030Y018892D02*
X008135Y018892D01*
X008152Y018882D02*
X008101Y018913D01*
X008045Y018935D01*
X007972Y018953D01*
X007898Y018959D01*
X007325Y018959D01*
X007177Y018953D01*
X007030Y018935D01*
X007030Y017978D01*
X007254Y017978D01*
X007254Y018781D01*
X007256Y018799D01*
X007264Y018817D01*
X007275Y018831D01*
X007290Y018843D01*
X007307Y018850D01*
X007325Y018852D01*
X007442Y018852D01*
X007461Y018850D01*
X007478Y018843D01*
X007493Y018831D01*
X007504Y018817D01*
X007511Y018799D01*
X007514Y018781D01*
X007514Y017978D01*
X007738Y017978D01*
X007738Y018778D01*
X007741Y018798D01*
X007748Y018815D01*
X007760Y018831D01*
X007775Y018842D01*
X007793Y018850D01*
X007812Y018852D01*
X007868Y018852D01*
X007902Y018847D01*
X007934Y018835D01*
X007963Y018817D01*
X007982Y018789D01*
X007994Y018756D01*
X007998Y018722D01*
X007998Y017978D01*
X008234Y017978D01*
X008234Y018675D01*
X008229Y018738D01*
X008211Y018799D01*
X008185Y018843D01*
X008152Y018882D01*
X008190Y018835D02*
X007933Y018835D01*
X007986Y018777D02*
X008217Y018777D01*
X008230Y018719D02*
X007998Y018719D01*
X007998Y018662D02*
X008234Y018662D01*
X008234Y018604D02*
X007998Y018604D01*
X007998Y018547D02*
X008234Y018547D01*
X008234Y018489D02*
X007998Y018489D01*
X007998Y018431D02*
X008234Y018431D01*
X008234Y018374D02*
X007998Y018374D01*
X007998Y018316D02*
X008234Y018316D01*
X008234Y018259D02*
X007998Y018259D01*
X007998Y018201D02*
X008234Y018201D01*
X008234Y018144D02*
X007998Y018144D01*
X007998Y018086D02*
X008234Y018086D01*
X008234Y018028D02*
X007998Y018028D01*
X007738Y018028D02*
X007514Y018028D01*
X007514Y018086D02*
X007738Y018086D01*
X007738Y018144D02*
X007514Y018144D01*
X007514Y018201D02*
X007738Y018201D01*
X007738Y018259D02*
X007514Y018259D01*
X007514Y018316D02*
X007738Y018316D01*
X007738Y018374D02*
X007514Y018374D01*
X007514Y018431D02*
X007738Y018431D01*
X007738Y018489D02*
X007514Y018489D01*
X007514Y018547D02*
X007738Y018547D01*
X007738Y018604D02*
X007514Y018604D01*
X007514Y018662D02*
X007738Y018662D01*
X007738Y018719D02*
X007514Y018719D01*
X007514Y018777D02*
X007738Y018777D01*
X007765Y018835D02*
X007489Y018835D01*
X007279Y018835D02*
X007030Y018835D01*
X007030Y018777D02*
X007254Y018777D01*
X007254Y018719D02*
X007030Y018719D01*
X007030Y018662D02*
X007254Y018662D01*
X007254Y018604D02*
X007030Y018604D01*
X007030Y018547D02*
X007254Y018547D01*
X007254Y018489D02*
X007030Y018489D01*
X007030Y018431D02*
X007254Y018431D01*
X007254Y018374D02*
X007030Y018374D01*
X007030Y018316D02*
X007254Y018316D01*
X007254Y018259D02*
X007030Y018259D01*
X007030Y018201D02*
X007254Y018201D01*
X007254Y018144D02*
X007030Y018144D01*
X007030Y018086D02*
X007254Y018086D01*
X007254Y018028D02*
X007030Y018028D01*
X006734Y018028D02*
X006498Y018028D01*
X006498Y018086D02*
X006734Y018086D01*
X006734Y018144D02*
X006498Y018144D01*
X006498Y018201D02*
X006734Y018201D01*
X006734Y018259D02*
X006498Y018259D01*
X006498Y018316D02*
X006734Y018316D01*
X006734Y018374D02*
X006492Y018374D01*
X007153Y018950D02*
X007985Y018950D01*
M02*
