G75*
G70*
%OFA0B0*%
%FSLAX24Y24*%
%IPPOS*%
%LPD*%
%AMOC8*
5,1,8,0,0,1.08239X$1,22.5*
%
%ADD10C,0.1320*%
%ADD11R,0.0454X0.0454*%
%ADD12R,0.0394X0.0532*%
%ADD13R,0.0926X0.0454*%
%ADD14R,0.0847X0.0847*%
%ADD15C,0.0847*%
%ADD16C,0.0690*%
%ADD17C,0.0237*%
%ADD18C,0.0296*%
D10*
X001575Y001575D03*
X018110Y001575D03*
X018110Y018110D03*
X001575Y018110D03*
D11*
X009547Y011024D03*
X010138Y011024D03*
X008661Y008858D03*
X008661Y008268D03*
X007874Y008858D03*
X007874Y009449D03*
X008661Y007480D03*
X009252Y007480D03*
X009252Y006693D03*
X010039Y006693D03*
X010630Y006693D03*
X010630Y007480D03*
X011220Y007480D03*
X008661Y006693D03*
X016929Y007382D03*
X016929Y007972D03*
D12*
X013199Y010531D03*
X011998Y010531D03*
D13*
X011811Y011358D03*
X011811Y013051D03*
D14*
X014035Y013386D03*
X014035Y014567D03*
X015492Y014567D03*
X015492Y013386D03*
X015354Y008406D03*
X014173Y008406D03*
X014173Y006949D03*
X015354Y006949D03*
D15*
X018504Y008661D03*
X012598Y002756D03*
X007087Y001181D03*
X001181Y007087D03*
X001181Y012598D03*
X013780Y018504D03*
X018504Y015354D03*
D16*
X014961Y003756D03*
X014961Y002756D03*
X014961Y001756D03*
D17*
X010502Y009469D02*
X010246Y009469D01*
X010502Y009469D02*
X010502Y009469D01*
X010246Y009469D01*
X010246Y009469D01*
X010246Y009843D02*
X010502Y009843D01*
X010502Y009843D01*
X010246Y009843D01*
X010246Y009843D01*
X010246Y010217D02*
X010502Y010217D01*
X010502Y010217D01*
X010246Y010217D01*
X010246Y010217D01*
X009439Y010217D02*
X009183Y010217D01*
X009183Y010217D01*
X009439Y010217D01*
X009439Y010217D01*
X009439Y009843D02*
X009183Y009843D01*
X009183Y009843D01*
X009439Y009843D01*
X009439Y009843D01*
X009439Y009469D02*
X009183Y009469D01*
X009183Y009469D01*
X009439Y009469D01*
X009439Y009469D01*
D18*
X011713Y007480D03*
X013878Y006299D03*
X013878Y006004D03*
X014173Y006004D03*
X014173Y006299D03*
X014469Y006299D03*
X014469Y006004D03*
X015059Y006004D03*
X015059Y006299D03*
X015354Y006299D03*
X015354Y006004D03*
X015650Y006004D03*
X015650Y006299D03*
X016781Y008465D03*
X016781Y008760D03*
X017077Y008760D03*
X017077Y008465D03*
X015650Y009055D03*
X015354Y009055D03*
X015059Y009055D03*
X014469Y009055D03*
X014173Y009055D03*
X013878Y009055D03*
X016142Y013091D03*
X016142Y013386D03*
X016437Y013386D03*
X016437Y013681D03*
X016142Y013681D03*
X016142Y014272D03*
X016142Y014567D03*
X016437Y014567D03*
X016437Y014272D03*
X016437Y014862D03*
X016142Y014862D03*
X016437Y013091D03*
X013386Y013976D03*
X010630Y018110D03*
X010236Y018110D03*
X009843Y018110D03*
X009843Y018504D03*
X010236Y018504D03*
X010630Y018504D03*
X010630Y018898D03*
X010236Y018898D03*
X009843Y018898D03*
X009449Y018898D03*
X009055Y018898D03*
X009055Y018504D03*
X009055Y018110D03*
X009449Y018110D03*
X009449Y018504D03*
X001575Y016142D03*
X001181Y016142D03*
X000787Y016142D03*
X000787Y015748D03*
X001181Y015748D03*
X001575Y015748D03*
X001575Y015354D03*
X001575Y014961D03*
X001181Y014961D03*
X001181Y015354D03*
X000787Y015354D03*
X000787Y014961D03*
X000787Y014567D03*
X001181Y014567D03*
X001575Y014567D03*
X001575Y010630D03*
X001181Y010630D03*
X000787Y010630D03*
X000787Y010236D03*
X000787Y009843D03*
X001181Y009843D03*
X001181Y010236D03*
X001575Y010236D03*
X001575Y009843D03*
X001575Y009449D03*
X001181Y009449D03*
X000787Y009449D03*
X000787Y009055D03*
X001181Y009055D03*
X001575Y009055D03*
X001575Y005118D03*
X001181Y005118D03*
X000787Y005118D03*
X000787Y004724D03*
X000787Y004331D03*
X001181Y004331D03*
X001181Y004724D03*
X001575Y004724D03*
X001575Y004331D03*
X001575Y003937D03*
X001575Y003543D03*
X001181Y003543D03*
X000787Y003543D03*
X000787Y003937D03*
X001181Y003937D03*
X003543Y001575D03*
X003543Y001181D03*
X003543Y000787D03*
X003937Y000787D03*
X004331Y000787D03*
X004724Y000787D03*
X005118Y000787D03*
X005118Y001181D03*
X004724Y001181D03*
X004724Y001575D03*
X005118Y001575D03*
X004331Y001575D03*
X004331Y001181D03*
X003937Y001181D03*
X003937Y001575D03*
X009055Y001575D03*
X009449Y001575D03*
X009449Y001181D03*
X009055Y001181D03*
X009055Y000787D03*
X009449Y000787D03*
X009843Y000787D03*
X010236Y000787D03*
X010630Y000787D03*
X010630Y001181D03*
X010236Y001181D03*
X009843Y001181D03*
X009843Y001575D03*
X010236Y001575D03*
X010630Y001575D03*
X018110Y003543D03*
X018504Y003543D03*
X018504Y003937D03*
X018110Y003937D03*
X018110Y004331D03*
X018110Y004724D03*
X018504Y004724D03*
X018504Y004331D03*
X018898Y004331D03*
X018898Y004724D03*
X018898Y005118D03*
X018504Y005118D03*
X018110Y005118D03*
X018898Y003937D03*
X018898Y003543D03*
M02*
